{"glyphs":{"0":{"ha":1017,"x_min":42,"x_max":975,"o":"m 975 140 q 958 77 975 103 q 913 34 942 51 q 846 8 885 17 q 763 0 807 0 l 249 0 q 168 10 206 0 q 102 40 131 21 q 58 84 74 58 q 42 143 42 110 l 42 554 q 58 612 42 585 q 102 658 74 639 q 168 686 131 676 q 249 696 206 696 l 763 696 q 916 659 857 696 q 975 551 975 622 l 975 140 m 743 550 l 274 550 l 274 143 l 743 143 l 743 550 z "},"1":{"ha":782,"x_min":42,"x_max":740,"o":"m 740 121 q 715 52 740 76 q 655 17 689 28 q 585 3 621 6 q 529 0 550 0 l 42 0 l 42 22 q 67 94 42 69 q 127 129 92 118 q 199 142 163 140 q 256 143 235 143 l 283 143 l 283 550 l 260 550 q 181 558 218 550 q 115 583 143 567 q 69 622 86 600 q 51 672 53 644 l 51 696 l 301 696 q 405 686 363 696 q 472 660 447 676 q 506 619 496 643 q 517 565 517 594 l 517 143 l 740 143 l 740 121 z "},"2":{"ha":1017,"x_min":42,"x_max":975,"o":"m 975 421 q 958 357 975 385 q 913 310 942 329 q 846 282 883 292 q 765 272 808 272 l 274 272 l 274 143 l 975 143 q 956 81 975 107 q 907 36 938 54 q 835 9 876 18 q 754 0 794 0 l 264 0 q 102 36 163 0 q 42 144 42 72 l 42 283 q 61 345 42 318 q 111 389 81 372 q 182 413 142 406 q 264 421 222 421 l 743 421 l 743 550 l 42 550 q 102 662 42 628 q 263 696 163 696 l 765 696 q 846 687 808 696 q 913 658 883 678 q 958 608 942 639 q 975 536 975 578 l 975 421 z "},"3":{"ha":1017,"x_min":42,"x_max":975,"o":"m 975 140 q 956 72 975 99 q 902 29 936 44 q 826 7 868 14 q 742 0 785 0 l 243 0 q 94 39 146 0 q 42 122 42 78 l 42 143 l 743 143 l 743 272 l 340 272 q 239 288 275 272 q 184 324 203 303 q 161 366 165 344 q 157 400 157 388 l 157 421 l 743 421 l 743 550 l 210 550 q 81 585 117 550 q 42 672 46 621 l 42 694 l 742 694 q 851 683 807 694 q 924 653 896 672 q 963 610 951 633 q 975 565 975 588 q 968 523 975 547 q 943 475 961 499 q 891 435 925 451 q 806 418 857 418 l 806 411 q 863 401 836 407 q 911 383 890 396 q 957 341 939 365 q 975 263 975 317 l 975 140 z "},"4":{"ha":1011,"x_min":42,"x_max":969,"o":"m 43 696 l 278 696 l 278 421 l 735 421 l 735 696 l 969 696 l 969 0 l 735 0 l 735 274 l 246 274 q 126 287 169 274 q 63 320 82 300 q 42 389 43 340 l 43 696 z "},"5":{"ha":1017,"x_min":42,"x_max":975,"o":"m 975 143 q 928 42 975 85 q 764 0 881 0 l 274 0 q 169 13 213 0 q 98 43 126 25 q 56 82 69 61 q 42 122 42 103 l 42 143 l 742 143 l 742 274 l 250 274 q 87 317 132 274 q 42 418 42 361 l 42 696 l 975 696 l 975 672 q 956 622 972 644 q 910 583 939 600 q 844 558 882 567 q 765 550 807 550 l 272 550 l 272 421 l 760 421 q 866 410 824 421 q 933 381 908 399 q 966 342 957 363 q 975 300 975 321 l 975 143 z "},"6":{"ha":1017,"x_min":42,"x_max":975,"o":"m 975 133 q 920 39 975 78 q 742 0 865 0 l 249 0 q 169 10 207 0 q 103 40 132 21 q 58 84 75 58 q 42 143 42 110 l 42 551 q 63 622 42 594 q 118 667 85 650 q 193 690 151 683 q 274 696 235 696 l 975 696 l 975 683 q 955 623 975 647 q 901 582 935 599 q 826 558 868 565 q 743 550 785 550 l 274 550 l 274 322 q 313 378 289 358 q 363 408 336 399 q 416 419 389 418 q 467 421 443 421 l 768 421 q 846 414 808 421 q 914 389 883 407 q 975 299 975 354 l 975 133 m 743 274 l 274 274 l 274 143 l 743 143 l 743 274 z "},"7":{"ha":1000,"x_min":42,"x_max":958,"o":"m 413 -50 q 279 24 317 -15 q 282 106 242 63 l 717 550 l 253 550 q 153 564 193 550 q 88 599 113 578 q 52 642 63 621 q 42 676 42 663 l 42 696 l 740 696 q 878 675 832 696 q 942 625 925 654 q 952 565 958 596 q 932 514 946 533 l 413 -50 z "},"8":{"ha":1017,"x_min":42,"x_max":975,"o":"m 975 143 q 957 78 975 106 q 907 34 939 51 q 833 8 875 17 q 743 0 790 0 l 274 0 q 185 8 226 0 q 111 34 143 17 q 60 78 79 51 q 42 143 42 106 l 42 272 q 83 384 42 354 q 199 418 125 414 l 199 422 q 118 440 149 425 q 71 475 88 456 q 48 515 54 494 q 42 554 42 536 q 49 610 42 585 q 81 655 57 636 q 150 685 104 674 q 274 696 196 696 l 743 696 q 865 685 819 696 q 935 655 911 674 q 967 610 960 636 q 975 554 975 585 q 969 515 975 536 q 946 475 963 494 q 898 440 929 456 q 817 422 867 425 l 817 418 q 934 384 893 414 q 975 272 975 354 l 975 143 m 743 550 l 274 550 l 274 421 l 743 421 l 743 550 m 743 274 l 274 274 l 274 143 l 743 143 l 743 274 z "},"9":{"ha":1018,"x_min":42,"x_max":976,"o":"m 976 140 q 928 40 976 81 q 761 0 879 0 l 257 0 q 176 8 215 0 q 108 33 138 17 q 60 75 78 50 q 42 133 42 100 l 42 143 l 744 143 l 744 399 q 729 364 742 385 q 691 323 717 343 q 625 288 665 303 q 528 274 585 274 l 251 274 q 195 276 229 274 q 126 292 161 278 q 67 335 92 306 q 43 421 43 365 l 43 554 q 96 653 43 611 q 251 696 149 696 l 743 696 q 912 664 847 696 q 976 551 976 632 l 976 140 m 742 550 l 275 550 l 275 421 l 742 421 l 742 550 z "},"!":{"ha":315,"x_min":69,"x_max":246,"o":"m 69 294 l 69 696 l 244 696 l 244 294 l 69 294 m 246 0 l 246 181 l 72 181 l 72 108 q 85 64 72 83 q 119 30 97 44 q 168 8 140 15 q 228 0 196 0 l 246 0 z "},"\"":{"ha":331,"x_min":42,"x_max":289,"o":"m 196 422 l 196 696 l 289 696 l 289 422 l 196 422 m 42 422 l 42 696 l 135 696 l 135 422 l 42 422 z "},"#":{"ha":1017,"x_min":42,"x_max":975,"o":"m 975 307 q 951 232 975 261 q 895 188 928 203 q 828 167 863 172 q 775 163 794 163 l 743 163 l 743 118 q 704 29 743 58 q 564 0 665 0 l 564 140 l 451 140 l 451 0 q 313 29 351 0 q 274 118 274 58 l 274 163 l 242 163 q 188 167 222 163 q 122 188 154 172 q 65 232 89 203 q 42 307 42 261 l 274 307 l 274 388 l 42 388 q 65 464 42 436 q 122 506 89 492 q 188 524 154 521 q 242 528 222 528 l 274 528 l 274 578 q 313 666 274 636 q 451 696 351 696 l 451 550 l 564 550 l 564 696 q 704 666 665 696 q 743 578 743 636 l 743 528 l 775 528 q 828 524 794 528 q 895 506 863 521 q 951 464 928 492 q 975 388 975 436 l 742 388 l 742 307 l 975 307 m 451 385 l 451 307 l 564 307 l 564 385 l 451 385 z "},"$":{"ha":1017,"x_min":42,"x_max":975,"o":"m 975 144 q 914 36 975 72 q 753 0 853 0 l 594 0 l 594 -131 l 417 -131 l 417 0 l 264 0 q 181 9 221 0 q 110 36 142 18 q 60 80 79 54 q 42 140 42 106 l 743 140 l 743 272 l 250 272 q 170 282 208 272 q 103 310 132 292 q 58 357 75 329 q 42 421 42 385 l 42 536 q 58 608 42 578 q 103 658 75 639 q 170 687 132 678 q 250 696 208 696 l 417 696 l 417 828 l 594 828 l 594 696 l 756 696 q 914 662 853 696 q 975 550 975 628 l 272 550 l 272 418 l 753 418 q 835 410 794 418 q 906 386 875 403 q 956 344 938 369 q 975 283 975 318 l 975 144 z "},"%":{"ha":1017,"x_min":42,"x_max":975,"o":"m 975 94 q 963 47 975 65 q 931 19 950 29 q 888 5 911 10 q 842 0 864 0 l 679 0 q 638 6 660 0 q 599 22 617 11 q 569 50 581 33 q 558 92 558 67 l 558 189 q 594 256 558 240 q 681 272 631 272 l 846 272 q 940 253 906 272 q 975 189 975 233 l 975 94 m 367 0 l 201 0 l 656 696 l 824 696 l 367 0 m 457 511 q 444 464 457 483 q 413 435 432 444 q 369 421 393 425 q 325 417 346 417 l 160 417 q 120 422 142 417 q 82 439 99 428 q 53 467 65 450 q 42 507 42 483 l 42 607 q 78 676 42 656 q 167 696 115 696 l 332 696 q 424 673 392 696 q 457 606 457 650 l 457 511 m 836 192 l 697 192 l 697 88 l 836 88 l 836 192 m 318 607 l 179 607 l 179 503 l 318 503 l 318 607 z "},"&":{"ha":1258,"x_min":42,"x_max":1217,"o":"m 1217 403 q 1200 347 1217 376 q 1153 299 1183 317 q 1081 275 1121 278 q 999 272 1040 272 l 976 272 l 976 136 q 924 42 976 83 q 756 0 872 0 l 260 0 q 190 7 228 0 q 120 29 153 14 q 65 72 88 44 q 43 139 43 99 l 43 289 q 49 324 43 303 q 72 366 54 344 q 124 403 89 388 q 215 418 158 418 l 215 421 q 167 425 197 422 q 110 440 138 428 q 63 478 83 451 q 42 551 42 506 q 63 619 42 592 q 117 664 85 647 q 187 688 149 681 q 257 696 225 696 l 525 696 q 563 694 525 696 q 643 678 600 692 q 718 635 686 665 q 742 551 750 606 q 726 499 742 525 q 679 454 710 472 q 620 429 653 436 q 550 421 588 422 l 550 418 l 1217 418 l 1217 403 m 742 272 l 351 272 l 351 299 q 357 346 351 325 q 378 383 363 367 q 425 409 394 400 q 508 418 456 418 l 508 550 l 275 550 l 275 143 l 742 143 l 742 272 z "},"'":{"ha":192,"x_min":42,"x_max":150,"o":"m 42 418 l 42 696 l 150 696 l 150 418 l 42 418 z "},"+":{"ha":561,"x_min":42,"x_max":519,"o":"m 354 272 l 354 94 l 207 94 l 207 272 l 42 272 l 42 410 l 207 410 l 207 596 l 354 596 l 354 410 l 519 410 l 519 272 l 354 272 z "},",":{"ha":329,"x_min":42,"x_max":288,"o":"m 42 -319 l 42 -131 l 135 0 l 288 0 l 42 -319 z "},"-":{"ha":1007,"x_min":42,"x_max":965,"o":"m 571 844 l 539 832 l 533 819 l 538 801 l 536 793 l 533 779 l 561 779 q 574 799 567 789 q 583 810 578 804 l 633 810 l 633 819 l 661 819 l 661 800 l 714 800 l 714 790 l 772 790 l 772 799 l 782 799 l 782 810 l 782 815 l 790 815 l 790 810 l 800 810 l 800 781 l 847 781 l 847 799 l 860 799 l 860 778 l 908 778 l 908 800 l 929 800 l 929 753 l 965 753 l 965 724 l 822 724 q 821 713 822 718 q 808 696 818 701 q 797 691 803 693 q 788 688 792 689 q 778 686 782 686 q 781 654 775 675 q 796 614 786 633 q 821 564 806 590 l 792 550 q 759 617 768 588 q 747 658 750 647 q 743 664 746 667 q 739 658 742 663 l 726 636 q 715 633 721 635 q 703 631 710 632 q 689 631 697 631 q 679 631 681 629 q 675 631 678 632 q 665 624 672 631 q 642 601 658 618 q 636 599 640 600 q 631 596 632 597 q 600 575 618 585 q 582 565 592 569 l 506 571 q 504 557 506 563 q 496 543 501 543 q 490 537 492 543 q 488 522 489 531 q 487 506 488 514 q 485 492 486 497 q 478 486 482 486 q 472 481 475 486 q 469 474 469 478 q 468 468 469 471 q 467 461 467 464 l 465 404 q 489 401 475 411 q 515 378 503 392 q 546 339 531 363 q 565 314 557 328 q 579 288 574 300 q 589 257 585 272 l 575 233 l 650 140 q 660 103 654 125 q 671 56 665 81 q 680 8 676 32 q 683 -37 683 -17 q 679 -47 683 -42 q 669 -58 675 -53 q 660 -68 664 -62 q 657 -78 657 -74 q 660 -96 657 -90 q 665 -117 663 -101 q 693 -139 675 -129 q 710 -149 701 -144 q 736 -182 728 -167 q 747 -209 744 -197 q 744 -228 749 -221 q 733 -239 740 -236 q 717 -242 726 -242 q 697 -242 707 -242 q 674 -240 686 -242 q 640 -227 657 -240 q 608 -199 622 -214 q 607 -190 607 -197 q 608 -185 607 -187 q 599 -183 603 -185 q 589 -181 589 -181 q 592 -123 594 -144 q 585 -89 589 -101 q 581 -78 583 -83 q 578 -74 579 -75 q 569 -67 575 -69 q 560 -60 563 -65 q 547 -15 553 -40 q 536 35 540 11 q 526 92 531 63 l 374 263 q 338 176 354 218 q 308 103 322 140 q 286 44 293 67 q 260 -20 271 -1 q 238 -50 249 -39 q 222 -61 235 -53 q 194 -78 210 -69 q 163 -91 178 -86 q 139 -89 147 -96 q 139 -97 138 -90 q 143 -111 140 -103 q 148 -128 146 -119 q 150 -146 150 -137 q 155 -150 150 -149 q 165 -153 160 -151 q 173 -158 169 -154 q 175 -167 176 -161 q 163 -176 172 -174 q 143 -178 154 -178 q 115 -176 131 -178 q 78 -156 90 -174 q 63 -117 65 -137 q 58 -104 61 -106 q 53 -106 56 -103 q 48 -112 50 -108 q 46 -112 46 -115 q 42 -97 43 -104 q 42 -86 42 -90 q 43 -78 42 -81 q 63 -45 50 -61 q 96 -10 76 -29 q 97 3 99 -8 q 97 15 94 14 q 119 37 108 26 q 139 54 131 47 q 157 69 149 63 q 176 151 164 101 q 201 249 188 201 q 235 364 217 304 q 229 397 231 378 q 228 435 228 415 q 232 473 229 454 q 239 507 235 492 q 246 548 243 521 q 251 603 249 575 q 256 655 254 631 q 257 690 257 679 q 277 747 258 722 q 313 789 296 771 q 326 793 319 796 q 340 793 333 790 q 356 799 344 796 q 369 803 367 801 q 371 804 371 803 q 368 807 371 806 l 363 810 l 361 885 q 378 918 367 906 q 403 937 389 931 q 433 944 417 943 q 464 946 449 946 q 511 934 493 947 q 540 904 529 921 q 557 860 553 885 l 571 844 m 549 669 q 560 677 556 669 q 574 688 565 685 q 590 692 581 689 q 614 703 599 696 q 635 717 626 708 q 640 724 639 721 q 603 725 619 724 q 574 726 588 725 q 553 724 560 726 q 539 717 546 721 q 526 711 532 714 q 514 703 519 707 q 510 692 511 699 q 507 679 508 686 q 504 665 506 672 q 524 667 515 665 q 538 668 531 668 q 549 669 546 668 z "},".":{"ha":261,"x_min":42,"x_max":219,"o":"m 42 0 l 42 229 l 219 229 l 219 0 l 42 0 z "},"/":{"ha":601,"x_min":42,"x_max":560,"o":"m 188 -272 l 42 -272 l 414 958 l 560 958 l 188 -272 z "},":":{"ha":251,"x_min":42,"x_max":210,"o":"m 42 350 l 42 561 l 210 561 l 210 350 l 42 350 m 42 40 l 42 251 l 210 251 l 210 40 l 42 40 z "},";":{"ha":329,"x_min":42,"x_max":288,"o":"m 135 557 l 288 557 l 288 354 l 135 354 l 135 557 m 135 0 l 135 243 l 288 243 l 288 0 l 42 -319 l 42 -131 l 135 0 z "},"<":{"ha":365,"x_min":42,"x_max":324,"o":"m 229 -42 q 188 -16 204 -42 q 161 32 171 10 l 42 350 l 161 663 q 188 707 171 685 q 229 729 204 729 l 322 729 l 172 350 l 324 -42 l 229 -42 z "},"=":{"ha":533,"x_min":42,"x_max":492,"o":"m 42 388 l 42 550 l 492 550 l 492 388 l 42 388 m 42 132 l 42 294 l 492 294 l 492 132 l 42 132 z "},">":{"ha":367,"x_min":42,"x_max":325,"o":"m 206 32 q 178 -16 194 10 q 138 -42 161 -42 l 42 -42 l 193 350 l 43 729 l 138 729 q 178 707 161 729 q 206 663 194 685 l 325 350 l 206 32 z "},"?":{"ha":1015,"x_min":42,"x_max":974,"o":"m 974 394 q 923 303 974 333 q 760 272 872 272 l 624 272 l 624 228 l 390 228 l 390 283 q 407 347 390 321 q 453 389 424 372 q 521 413 482 406 q 604 421 560 421 l 743 421 l 743 550 l 274 550 l 274 418 l 254 418 q 197 420 233 418 q 126 436 161 422 q 67 480 92 450 q 42 565 42 510 q 99 659 42 622 q 274 696 157 696 l 764 696 q 843 686 806 696 q 909 660 881 676 q 954 621 938 643 q 974 572 971 599 l 974 394 m 390 0 l 390 147 l 624 147 l 624 0 l 390 0 z "},"A":{"ha":1019,"x_min":42,"x_max":978,"o":"m 743 0 l 743 274 l 274 274 l 274 165 q 258 86 274 114 q 211 39 243 58 q 141 10 182 21 q 56 0 100 0 l 42 0 l 42 543 q 58 612 42 583 q 104 659 75 640 q 172 687 133 678 q 251 696 210 696 l 978 696 l 978 0 l 743 0 m 743 550 l 274 550 l 274 421 l 743 421 l 743 550 z "},"B":{"ha":1017,"x_min":42,"x_max":975,"o":"m 975 176 q 956 90 975 125 q 905 36 938 56 q 831 8 872 17 q 743 0 789 0 l 42 0 l 42 696 l 744 696 q 915 660 856 696 q 975 572 975 625 l 975 554 q 958 495 975 525 q 908 447 940 465 q 801 418 867 425 l 801 417 q 859 403 832 411 q 910 378 886 394 q 958 334 940 361 q 975 276 975 307 l 975 176 m 274 274 l 274 143 l 744 143 l 744 274 l 274 274 m 744 550 l 274 550 l 274 421 l 744 421 l 744 550 z "},"C":{"ha":1019,"x_min":42,"x_max":978,"o":"m 978 550 q 955 490 978 511 q 911 458 932 469 q 843 428 881 439 q 764 418 806 418 l 743 418 l 743 550 l 274 550 l 274 143 l 744 143 l 744 285 l 975 285 l 975 147 q 958 82 975 110 q 913 36 942 54 q 846 9 885 18 q 764 0 807 0 l 249 0 q 169 10 207 0 q 103 40 132 21 q 58 85 75 58 q 42 144 42 111 l 42 554 q 58 610 42 585 q 103 655 75 636 q 169 685 132 674 q 250 696 207 696 l 764 696 q 919 658 861 696 q 978 550 978 621 z "},"D":{"ha":1017,"x_min":42,"x_max":975,"o":"m 975 144 q 959 81 975 107 q 914 36 943 54 q 847 9 885 18 q 764 0 808 0 l 42 0 l 42 696 l 764 696 q 918 658 861 696 q 975 550 975 621 l 975 144 m 278 550 l 278 143 l 744 143 l 744 550 l 278 550 z "},"E":{"ha":1017,"x_min":42,"x_max":975,"o":"m 717 274 l 274 274 l 274 143 l 975 143 q 959 78 975 106 q 914 34 943 51 q 847 8 885 17 q 764 0 808 0 l 250 0 q 169 10 207 0 q 103 40 132 21 q 58 85 75 58 q 42 144 42 111 l 42 551 q 58 610 42 583 q 103 655 75 636 q 169 685 132 674 q 249 696 207 696 l 764 696 q 917 658 860 696 q 975 550 975 621 l 274 550 l 274 421 l 717 421 l 717 274 z "},"F":{"ha":936,"x_min":42,"x_max":894,"o":"m 894 696 q 885 635 894 667 q 846 585 875 603 q 775 558 815 567 q 663 550 735 550 l 274 550 l 274 421 l 556 421 l 556 274 l 274 274 l 274 163 q 214 29 274 65 q 144 6 183 11 q 65 0 106 0 l 42 0 l 42 550 q 63 635 42 606 q 116 678 85 665 q 184 694 147 692 q 251 696 221 696 l 894 696 z "},"G":{"ha":1017,"x_min":42,"x_max":975,"o":"m 975 144 q 958 81 975 107 q 913 36 942 54 q 846 9 885 18 q 764 0 807 0 l 249 0 q 169 10 207 0 q 103 40 132 21 q 58 85 75 58 q 42 144 42 111 l 42 554 q 58 610 42 585 q 103 655 75 636 q 169 685 132 674 q 250 696 207 696 l 764 696 q 918 660 861 696 q 975 550 975 625 l 274 550 l 274 143 l 744 143 l 744 274 l 578 274 q 434 308 494 274 q 367 394 374 343 l 367 421 l 975 421 l 975 144 z "},"H":{"ha":1017,"x_min":42,"x_max":975,"o":"m 743 0 l 743 274 l 274 274 l 274 0 l 42 0 l 42 554 q 58 610 42 585 q 103 655 75 636 q 169 685 132 674 q 250 696 207 696 l 274 696 l 274 418 l 744 418 l 744 696 l 975 696 l 975 0 l 743 0 z "},"I":{"ha":315,"x_min":42,"x_max":274,"o":"m 249 0 q 169 10 207 0 q 103 40 132 21 q 58 85 75 58 q 42 144 42 111 l 42 696 l 274 696 l 274 0 l 249 0 z "},"J":{"ha":913,"x_min":42,"x_max":871,"o":"m 871 144 q 854 81 871 107 q 809 36 838 54 q 742 9 781 18 q 660 0 703 0 l 257 0 q 101 40 160 0 q 42 174 42 81 q 60 253 42 221 q 108 306 79 285 q 177 338 138 328 q 258 347 217 347 l 274 347 l 274 143 l 640 143 l 640 696 l 871 696 l 871 144 z "},"K":{"ha":981,"x_min":42,"x_max":939,"o":"m 761 0 q 690 7 718 0 q 640 24 661 14 q 601 46 618 33 q 568 69 585 58 l 274 321 l 274 133 q 256 70 274 96 q 210 29 239 44 q 142 7 181 14 q 63 0 104 0 l 42 0 l 42 696 l 274 696 l 274 389 l 576 696 l 833 696 l 517 369 l 939 0 l 761 0 z "},"L":{"ha":800,"x_min":42,"x_max":758,"o":"m 758 143 q 738 78 756 106 q 691 33 719 50 q 624 8 663 17 q 542 0 586 0 l 256 0 q 172 9 211 0 q 104 36 133 18 q 58 81 75 54 q 42 144 42 107 l 42 696 l 63 696 q 217 658 160 696 q 274 550 274 621 l 274 143 l 758 143 z "},"M":{"ha":1103,"x_min":42,"x_max":1061,"o":"m 829 0 l 829 428 l 553 117 l 274 428 l 274 0 l 42 0 l 42 696 l 86 696 q 133 695 104 696 q 192 686 161 694 q 256 664 224 678 q 314 622 288 650 l 553 372 l 789 622 q 846 664 814 650 q 910 686 878 678 q 971 695 942 694 q 1018 696 1000 696 l 1061 696 l 1061 0 l 829 0 z "},"N":{"ha":924,"x_min":42,"x_max":882,"o":"m 835 3 q 790 5 817 3 q 733 15 764 7 q 672 37 703 22 q 615 76 642 51 l 367 310 l 274 396 l 274 3 l 42 3 l 42 696 l 89 696 q 135 694 107 696 q 192 684 163 692 q 253 662 222 676 q 311 622 285 647 l 558 389 q 574 375 560 388 q 610 342 588 363 q 650 306 632 321 l 650 556 q 709 663 650 629 q 864 696 768 696 l 882 696 l 882 3 l 835 3 z "},"O":{"ha":1017,"x_min":42,"x_max":975,"o":"m 975 140 q 958 77 975 103 q 913 34 942 51 q 846 8 885 17 q 763 0 807 0 l 249 0 q 168 10 206 0 q 102 40 131 21 q 58 84 74 58 q 42 143 42 110 l 42 554 q 58 612 42 585 q 102 658 74 639 q 168 686 131 676 q 249 696 206 696 l 763 696 q 916 659 857 696 q 975 551 975 622 l 975 140 m 743 550 l 274 550 l 274 143 l 743 143 l 743 550 z "},"P":{"ha":1017,"x_min":42,"x_max":975,"o":"m 975 421 q 904 310 975 347 q 714 274 833 274 l 367 274 q 374 323 367 296 q 398 371 382 350 q 440 406 414 392 q 503 421 467 421 l 742 421 l 742 550 l 274 550 l 274 163 q 214 29 274 65 q 144 6 183 11 q 65 0 106 0 l 42 0 l 42 696 l 763 696 q 916 658 857 696 q 975 550 975 621 l 975 421 z "},"Q":{"ha":1017,"x_min":42,"x_max":975,"o":"m 975 144 q 958 81 975 107 q 913 36 942 54 q 846 9 885 18 q 764 0 807 0 l 632 0 l 632 -144 l 592 -144 q 453 -114 508 -144 q 397 0 399 -83 l 249 0 q 169 10 207 0 q 103 40 132 21 q 58 85 75 58 q 42 144 42 111 l 42 554 q 58 610 42 585 q 103 655 75 636 q 169 685 132 674 q 250 696 207 696 l 764 696 q 918 658 861 696 q 975 550 975 621 l 975 144 m 744 550 l 274 550 l 274 143 l 401 143 l 401 343 q 578 308 525 343 q 632 189 632 272 l 632 140 l 744 140 l 744 550 z "},"R":{"ha":1039,"x_min":42,"x_max":997,"o":"m 715 -1 l 383 421 l 744 421 l 744 550 l 274 550 l 274 165 q 214 32 274 67 q 144 8 183 14 q 65 3 106 3 l 42 3 l 42 696 l 764 696 q 918 658 861 696 q 975 550 975 621 l 975 418 q 923 314 975 351 q 775 272 871 276 l 997 -1 l 715 -1 z "},"S":{"ha":1022,"x_min":42,"x_max":981,"o":"m 981 144 q 919 34 981 69 q 757 -1 857 -1 l 263 -1 q 181 8 221 -1 q 110 35 142 17 q 60 81 79 54 q 42 143 42 107 l 749 143 l 749 274 l 253 274 q 173 283 211 274 q 106 310 135 292 q 59 356 76 329 q 42 421 42 383 l 42 536 q 59 608 42 578 q 106 658 76 639 q 173 687 135 678 q 254 696 211 696 l 760 696 q 920 662 860 696 q 981 550 981 628 l 279 550 l 279 421 l 758 421 q 840 413 800 421 q 911 389 881 406 q 961 345 942 372 q 981 283 981 318 l 981 144 z "},"T":{"ha":1026,"x_min":42,"x_max":985,"o":"m 985 665 q 964 597 985 621 q 913 564 943 574 q 851 552 883 554 q 796 550 819 550 l 633 550 l 633 144 q 598 33 633 67 q 467 0 563 0 l 399 0 l 399 550 l 42 550 l 42 569 q 84 669 42 643 q 204 696 126 696 l 985 696 l 985 665 z "},"U":{"ha":963,"x_min":42,"x_max":921,"o":"m 921 144 q 903 85 921 111 q 858 40 886 58 q 792 10 829 21 q 711 0 754 0 l 251 0 q 170 10 208 0 q 103 40 132 21 q 58 85 75 58 q 42 144 42 111 l 42 696 l 67 696 q 216 669 158 696 q 274 576 274 643 l 274 143 l 689 143 l 689 696 l 921 696 l 921 144 z "},"V":{"ha":1003,"x_min":42,"x_max":961,"o":"m 961 276 q 929 244 960 267 q 853 192 899 222 q 754 128 808 161 q 649 63 700 94 q 557 8 599 32 q 496 -24 515 -15 q 435 8 476 -15 q 344 63 394 32 q 242 128 294 94 q 145 192 189 161 q 72 244 101 222 q 42 276 43 267 l 42 696 l 63 696 q 214 658 150 696 q 274 565 274 628 l 274 329 q 301 300 274 322 q 367 253 329 278 q 441 205 404 229 q 496 172 478 181 q 553 206 514 183 q 630 255 592 229 q 697 301 668 281 q 726 329 726 322 l 726 567 q 790 661 726 622 q 942 696 851 696 l 961 696 l 961 276 z "},"W":{"ha":1218,"x_min":42,"x_max":1176,"o":"m 1176 143 q 1160 74 1176 100 q 1114 31 1143 47 q 1048 7 1085 14 q 968 0 1011 0 l 251 0 q 170 8 208 0 q 103 34 132 17 q 58 78 75 51 q 42 143 42 106 l 42 696 l 68 696 q 148 690 111 696 q 214 669 185 685 q 260 625 243 654 q 278 551 278 596 l 278 143 l 493 143 l 493 567 l 519 567 q 599 560 561 567 q 666 538 638 554 q 711 492 694 521 q 728 418 728 463 l 728 143 l 943 143 l 943 554 q 960 626 943 599 q 1005 669 976 654 q 1072 690 1033 685 q 1153 696 1110 696 l 1176 696 l 1176 143 z "},"X":{"ha":967,"x_min":42,"x_max":925,"o":"m 668 0 l 486 210 l 365 67 q 302 19 336 33 q 247 3 268 6 q 224 0 226 0 l 42 0 l 346 356 l 50 696 l 232 696 q 256 692 236 696 q 310 674 275 689 q 375 625 346 658 l 488 496 l 607 628 q 671 674 636 658 q 726 692 706 689 q 749 696 746 696 l 925 696 l 626 350 l 925 0 l 668 0 z "},"Y":{"ha":1018,"x_min":42,"x_max":976,"o":"m 976 140 q 953 68 976 96 q 897 25 931 40 q 822 5 863 10 q 744 0 781 0 l 258 0 l 258 14 q 284 90 258 63 q 344 128 310 117 q 415 142 378 140 q 472 143 451 143 l 744 143 l 744 274 l 256 274 q 199 272 235 274 q 127 277 163 269 q 67 309 92 285 q 42 385 42 333 l 42 694 l 61 694 q 120 692 83 694 q 191 678 157 689 q 250 642 225 667 q 275 569 275 617 l 275 421 l 744 421 l 744 696 l 976 696 l 976 140 z "},"Z":{"ha":1065,"x_min":42,"x_max":1024,"o":"m 42 0 l 42 81 q 72 151 42 114 q 147 224 101 188 q 247 297 193 261 q 350 363 301 332 q 462 432 414 403 q 544 483 510 461 q 606 521 579 506 q 654 550 632 536 l 229 550 q 137 558 174 550 q 79 583 100 567 q 50 624 58 600 q 42 674 42 647 l 42 696 l 1021 696 l 1021 629 q 1003 560 1021 592 q 953 497 985 528 q 878 437 921 467 q 788 378 835 407 l 788 381 q 569 244 669 307 q 404 143 468 181 l 822 143 q 932 130 892 143 q 993 97 972 117 q 1019 53 1014 76 q 1024 10 1024 29 l 1024 0 l 42 0 z "},"[":{"ha":414,"x_min":69,"x_max":344,"o":"m 344 -261 l 281 -261 q 224 -257 260 -261 q 154 -240 189 -253 q 94 -202 119 -226 q 69 -139 69 -178 l 69 814 q 85 888 69 858 q 127 934 100 917 q 188 959 154 951 q 261 967 222 967 l 344 967 l 344 825 l 250 825 l 250 -131 l 344 -131 l 344 -261 z "},"]":{"ha":414,"x_min":69,"x_max":344,"o":"m 344 -139 q 319 -202 344 -178 q 260 -240 294 -226 q 190 -257 225 -253 q 133 -261 156 -261 l 69 -261 l 69 -131 l 164 -131 l 164 825 l 69 825 l 69 967 l 154 967 q 226 959 192 967 q 287 934 261 951 q 328 888 313 917 q 344 814 344 858 l 344 -139 l 344 -139 z "},"^":{"ha":504,"x_min":69,"x_max":435,"o":"m 251 811 l 69 717 l 69 840 l 251 950 l 435 840 l 435 717 l 251 811 z "},"_":{"ha":1085,"x_min":69,"x_max":1015,"o":"m 1015 -282 l 69 -282 l 69 -131 l 1015 -131 l 1015 -282 z "},"`":{"ha":332,"x_min":69,"x_max":263,"o":"m 157 696 l 69 988 l 201 988 l 263 696 l 157 696 z "},"a":{"ha":786,"x_min":42,"x_max":744,"o":"m 568 0 l 568 206 l 217 206 l 217 124 q 205 65 217 86 q 169 29 193 44 q 117 8 147 15 q 53 0 86 0 l 42 0 l 42 407 q 54 459 42 438 q 89 494 67 481 q 140 515 111 508 q 200 522 168 522 l 744 522 l 744 0 l 568 0 m 568 413 l 217 413 l 217 315 l 568 315 l 568 413 z "},"b":{"ha":783,"x_min":42,"x_max":742,"o":"m 742 132 q 727 68 742 94 q 688 27 713 42 q 633 6 664 13 q 567 0 601 0 l 42 0 l 42 522 l 568 522 q 697 496 651 522 q 742 429 742 469 l 742 415 q 728 372 742 394 q 692 336 715 349 q 611 314 660 319 l 611 313 q 654 302 633 308 q 692 283 675 296 q 728 251 715 271 q 742 207 742 231 l 742 132 m 215 206 l 215 107 l 568 107 l 568 206 l 215 206 m 568 413 l 215 413 l 215 315 l 568 315 l 568 413 z "},"c":{"ha":786,"x_min":42,"x_max":744,"o":"m 744 413 q 727 368 744 383 q 694 344 710 353 q 643 322 671 329 q 583 314 615 314 l 568 314 l 568 413 l 217 413 l 217 107 l 569 107 l 569 214 l 742 214 l 742 111 q 729 61 742 82 q 696 27 717 40 q 646 7 675 14 q 583 0 617 0 l 197 0 q 138 8 167 0 q 88 30 110 15 q 54 64 67 44 q 42 108 42 83 l 42 415 q 54 458 42 439 q 88 492 67 478 q 138 514 110 506 q 199 522 167 522 l 583 522 q 701 494 657 522 q 744 413 744 465 z "},"d":{"ha":783,"x_min":42,"x_max":742,"o":"m 742 108 q 730 60 742 81 q 696 27 718 40 q 645 7 674 14 q 583 0 617 0 l 42 0 l 42 522 l 583 522 q 699 494 657 522 q 742 413 742 465 l 742 108 m 219 413 l 219 107 l 569 107 l 569 413 l 219 413 z "},"e":{"ha":783,"x_min":42,"x_max":742,"o":"m 549 206 l 217 206 l 217 107 l 742 107 q 730 59 742 79 q 697 26 718 39 q 646 6 675 13 q 583 0 617 0 l 199 0 q 138 8 167 0 q 88 30 110 15 q 54 64 67 44 q 42 108 42 83 l 42 414 q 54 458 42 438 q 88 492 67 478 q 138 514 110 506 q 197 522 167 522 l 583 522 q 699 494 656 522 q 742 413 742 465 l 217 413 l 217 315 l 549 315 l 549 206 z "},"f":{"ha":724,"x_min":42,"x_max":682,"o":"m 682 522 q 674 476 682 500 q 646 439 667 453 q 592 419 622 425 q 508 413 563 413 l 217 413 l 217 315 l 428 315 l 428 206 l 217 206 l 217 122 q 171 22 217 49 q 119 4 149 8 q 60 0 90 0 l 42 0 l 42 413 q 58 476 42 454 q 98 509 75 499 q 149 521 121 519 q 200 522 176 522 l 682 522 z "},"g":{"ha":783,"x_min":42,"x_max":742,"o":"m 742 108 q 729 60 742 81 q 696 27 717 40 q 646 7 675 14 q 583 0 617 0 l 197 0 q 138 8 167 0 q 88 30 110 15 q 54 64 67 44 q 42 108 42 83 l 42 415 q 54 458 42 439 q 88 492 67 478 q 138 514 110 506 q 199 522 167 522 l 583 522 q 699 496 657 522 q 742 413 742 469 l 217 413 l 217 107 l 569 107 l 569 206 l 444 206 q 337 231 382 206 q 286 296 292 257 l 286 315 l 742 315 l 742 108 z "},"h":{"ha":783,"x_min":42,"x_max":742,"o":"m 567 0 l 567 206 l 215 206 l 215 0 l 42 0 l 42 415 q 54 458 42 439 q 88 492 67 478 q 137 514 108 506 q 197 522 165 522 l 215 522 l 215 314 l 568 314 l 568 522 l 742 522 l 742 0 l 567 0 z "},"i":{"ha":257,"x_min":42,"x_max":215,"o":"m 197 0 q 138 8 165 0 q 88 30 110 15 q 54 64 67 44 q 42 108 42 83 l 42 522 l 215 522 l 215 0 l 197 0 z "},"j":{"ha":706,"x_min":42,"x_max":664,"o":"m 664 108 q 651 60 664 81 q 617 27 639 40 q 567 7 596 14 q 506 0 538 0 l 204 0 q 86 31 131 0 q 42 131 42 61 q 56 190 42 165 q 92 230 71 214 q 144 253 114 246 q 204 261 174 261 l 217 261 l 217 107 l 492 107 l 492 522 l 664 522 l 664 108 z "},"k":{"ha":757,"x_min":42,"x_max":715,"o":"m 582 0 q 528 6 550 0 q 491 18 507 11 q 463 35 475 25 q 438 53 450 44 l 217 240 l 217 100 q 203 53 217 72 q 168 22 190 33 q 117 6 146 11 q 58 0 89 0 l 42 0 l 42 522 l 217 522 l 217 292 l 443 522 l 636 522 l 399 278 l 715 0 l 582 0 z "},"l":{"ha":621,"x_min":42,"x_max":579,"o":"m 579 107 q 564 58 578 79 q 529 25 550 38 q 479 6 508 13 q 417 0 450 0 l 203 0 q 140 7 169 0 q 89 27 111 14 q 54 60 67 40 q 42 108 42 81 l 42 522 l 58 522 q 174 494 131 522 q 217 413 217 465 l 217 107 l 579 107 z "},"m":{"ha":849,"x_min":42,"x_max":807,"o":"m 632 0 l 632 321 l 425 88 l 215 321 l 215 0 l 42 0 l 42 522 l 75 522 q 110 522 89 522 q 155 515 132 521 q 202 498 178 508 q 246 467 226 488 l 425 279 l 603 467 q 645 498 621 488 q 693 515 669 508 q 739 522 717 521 q 774 522 761 522 l 807 522 l 807 0 l 632 0 z "},"n":{"ha":714,"x_min":42,"x_max":672,"o":"m 638 3 q 603 4 624 3 q 560 11 583 6 q 515 28 538 17 q 472 57 492 39 l 286 232 l 217 297 l 217 3 l 42 3 l 42 522 l 78 522 q 113 521 92 522 q 156 513 133 519 q 201 497 178 507 q 244 467 225 486 l 429 292 q 441 281 431 290 q 468 256 451 272 q 499 229 485 240 l 499 417 q 543 497 499 472 q 658 522 588 522 l 672 522 l 672 3 l 638 3 z "},"o":{"ha":783,"x_min":42,"x_max":742,"o":"m 742 106 q 729 58 742 78 q 696 26 717 39 q 646 6 675 13 q 583 0 617 0 l 197 0 q 137 8 165 0 q 88 30 108 15 q 54 63 67 44 q 42 107 42 82 l 42 415 q 54 459 42 439 q 88 493 67 479 q 137 515 108 507 q 197 522 165 522 l 583 522 q 698 494 654 522 q 742 414 742 467 l 742 106 m 568 413 l 217 413 l 217 107 l 568 107 l 568 413 z "},"p":{"ha":783,"x_min":42,"x_max":742,"o":"m 742 315 q 689 233 742 261 q 546 206 636 206 l 286 206 q 292 242 286 222 q 309 278 297 263 q 341 305 321 294 q 388 315 361 315 l 567 315 l 567 413 l 217 413 l 217 122 q 171 22 217 49 q 119 4 149 8 q 60 0 90 0 l 42 0 l 42 522 l 583 522 q 698 494 654 522 q 742 413 742 465 l 742 315 z "},"q":{"ha":783,"x_min":42,"x_max":742,"o":"m 742 108 q 729 60 742 81 q 696 27 717 40 q 646 7 675 14 q 583 0 617 0 l 485 0 l 485 -108 l 454 -108 q 351 -85 392 -108 q 308 0 310 -62 l 197 0 q 138 8 167 0 q 88 30 110 15 q 54 64 67 44 q 42 108 42 83 l 42 415 q 54 458 42 439 q 88 492 67 478 q 138 514 110 506 q 199 522 167 522 l 583 522 q 699 494 657 522 q 742 413 742 465 l 742 108 m 569 413 l 217 413 l 217 107 l 313 107 l 313 257 q 444 231 404 257 q 485 142 485 204 l 485 106 l 569 106 l 569 413 z "},"r":{"ha":800,"x_min":42,"x_max":758,"o":"m 547 -1 l 299 315 l 569 315 l 569 413 l 217 413 l 217 124 q 171 24 217 50 q 119 7 149 11 q 60 3 90 3 l 42 3 l 42 522 l 583 522 q 699 494 657 522 q 742 413 742 465 l 742 314 q 703 235 742 264 q 592 204 664 207 l 758 -1 l 547 -1 z "},"s":{"ha":788,"x_min":42,"x_max":746,"o":"m 746 108 q 700 26 746 53 q 579 -1 654 -1 l 208 -1 q 147 6 176 -1 q 94 26 117 13 q 56 60 71 40 q 42 107 42 81 l 572 107 l 572 206 l 200 206 q 141 213 169 206 q 90 233 113 219 q 55 267 68 247 q 42 315 42 288 l 42 403 q 55 456 42 433 q 90 494 68 479 q 141 515 113 508 q 201 522 169 522 l 581 522 q 701 497 656 522 q 746 413 746 471 l 221 413 l 221 315 l 579 315 q 641 310 611 315 q 694 292 671 304 q 731 259 717 279 q 746 213 746 239 l 746 108 z "},"t":{"ha":792,"x_min":42,"x_max":750,"o":"m 750 499 q 734 448 750 465 q 696 423 718 431 q 649 414 674 415 q 608 413 625 413 l 486 413 l 486 108 q 460 25 486 50 q 361 0 433 0 l 310 0 l 310 413 l 42 413 l 42 428 q 74 502 42 482 q 164 522 106 522 l 750 522 l 750 499 z "},"u":{"ha":743,"x_min":42,"x_max":701,"o":"m 701 108 q 688 64 701 83 q 654 30 675 44 q 605 8 633 15 q 544 0 576 0 l 200 0 q 138 8 167 0 q 88 30 110 15 q 54 64 67 44 q 42 108 42 83 l 42 522 l 61 522 q 173 502 129 522 q 217 432 217 482 l 217 107 l 528 107 l 528 522 l 701 522 l 701 108 z "},"v":{"ha":774,"x_min":42,"x_max":732,"o":"m 732 207 q 708 183 731 200 q 651 144 685 167 q 576 96 617 121 q 498 47 536 71 q 428 6 460 24 q 383 -18 397 -11 q 338 6 368 -11 q 269 47 307 24 q 192 96 232 71 q 120 144 153 121 q 65 183 88 167 q 42 207 43 200 l 42 522 l 58 522 q 171 494 124 522 q 217 424 217 471 l 217 247 q 238 225 217 242 q 286 190 258 208 q 342 154 314 172 q 383 129 369 136 q 425 155 396 138 q 483 192 454 172 q 534 226 513 211 q 556 247 556 242 l 556 425 q 604 496 556 467 q 717 522 650 522 l 732 522 l 732 207 z "},"w":{"ha":935,"x_min":42,"x_max":893,"o":"m 893 107 q 881 56 893 75 q 847 24 868 36 q 797 6 825 11 q 738 0 769 0 l 200 0 q 138 6 167 0 q 88 26 110 13 q 54 59 67 39 q 42 107 42 79 l 42 522 l 63 522 q 122 518 94 522 q 172 502 150 514 q 206 469 193 490 q 219 414 219 447 l 219 107 l 381 107 l 381 425 l 400 425 q 460 420 432 425 q 510 403 489 415 q 544 369 532 390 q 557 314 557 347 l 557 107 l 718 107 l 718 415 q 731 469 718 449 q 765 502 743 490 q 815 518 786 514 q 875 522 843 522 l 893 522 l 893 107 z "},"x":{"ha":746,"x_min":42,"x_max":704,"o":"m 511 0 l 375 157 l 285 50 q 237 15 263 25 q 196 2 211 4 q 178 0 181 0 l 42 0 l 269 267 l 47 522 l 185 522 q 202 519 188 522 q 243 506 217 517 q 292 469 269 494 l 376 372 l 465 471 q 513 506 488 494 q 554 519 539 517 q 572 522 569 522 l 704 522 l 481 263 l 704 0 l 511 0 z "},"y":{"ha":785,"x_min":42,"x_max":743,"o":"m 743 106 q 726 51 743 72 q 683 19 708 31 q 627 3 658 7 q 569 0 596 0 l 204 0 l 204 11 q 224 67 204 47 q 269 97 243 88 q 322 106 294 106 q 365 107 350 107 l 569 107 l 569 206 l 203 206 q 160 204 188 206 q 106 208 133 203 q 60 232 79 214 q 42 289 42 250 l 42 521 l 57 521 q 101 519 74 521 q 154 508 129 517 q 198 481 179 500 q 217 428 217 463 l 217 315 l 569 315 l 569 522 l 743 522 l 743 106 z "},"z":{"ha":821,"x_min":42,"x_max":779,"o":"m 42 0 l 42 61 q 65 113 42 86 q 122 168 88 140 q 197 222 156 196 q 274 272 238 249 q 357 324 321 303 q 419 363 393 346 q 465 391 446 379 q 501 413 485 403 l 183 413 q 114 419 142 413 q 70 438 86 425 q 48 468 54 450 q 42 506 42 486 l 42 522 l 776 522 l 776 472 q 763 420 776 444 q 726 373 750 396 q 669 328 701 350 q 601 283 638 306 l 601 286 q 438 183 513 231 q 314 107 363 136 l 628 107 q 710 97 679 107 q 756 72 740 88 q 775 40 771 57 q 779 7 779 22 l 779 0 l 42 0 z "},"{":{"ha":579,"x_min":69,"x_max":510,"o":"m 510 -268 l 450 -268 q 334 -253 376 -268 q 270 -219 292 -239 q 243 -180 249 -200 q 236 -146 238 -160 l 236 222 q 138 237 172 222 q 89 272 104 251 q 72 313 74 292 q 69 347 69 333 q 75 379 69 351 q 118 440 81 407 q 236 474 156 474 l 236 843 q 243 876 238 856 q 270 916 249 896 q 334 951 292 936 q 450 965 376 965 l 510 965 l 510 825 l 419 825 l 419 418 l 329 418 q 269 396 288 418 q 250 344 250 374 q 269 296 250 318 q 329 274 289 274 l 419 274 l 419 -131 l 510 -131 l 510 -268 z "},"|":{"ha":256,"x_min":69,"x_max":186,"o":"m 69 -261 l 69 961 l 186 961 l 186 -261 l 69 -261 z "},"}":{"ha":579,"x_min":69,"x_max":510,"o":"m 510 347 q 508 313 510 333 q 490 272 506 292 q 441 237 475 251 q 343 222 407 222 l 343 -146 q 336 -180 342 -160 q 309 -219 331 -200 q 245 -253 288 -239 q 129 -268 203 -268 l 69 -268 l 69 -131 l 160 -131 l 160 274 l 250 274 q 310 296 292 274 q 329 344 329 318 q 308 396 329 374 q 250 418 288 418 l 160 418 l 160 825 l 69 825 l 69 965 l 129 965 q 245 951 203 965 q 309 916 288 936 q 336 876 331 896 q 343 843 342 856 l 343 474 q 461 440 424 474 q 504 379 499 407 q 510 347 510 351 z "},"~":{"ha":740,"x_min":69,"x_max":671,"o":"m 671 814 q 661 757 671 781 q 636 720 651 733 q 601 701 621 707 q 563 694 581 694 q 453 713 532 694 q 210 783 375 731 l 210 696 l 69 696 l 69 814 q 80 869 69 847 q 107 905 90 892 q 144 924 124 918 q 183 929 164 929 q 295 902 210 929 q 524 836 381 875 l 524 914 l 671 914 l 671 814 l 671 814 z "},"Ä":{"ha":1019,"x_min":42,"x_max":978,"o":"m 561 828 l 561 967 l 688 967 l 688 828 l 561 828 m 374 828 l 374 967 l 500 967 l 500 828 l 374 828 m 743 0 l 743 274 l 274 274 l 274 165 q 258 86 274 114 q 211 39 243 58 q 141 10 182 21 q 56 0 100 0 l 42 0 l 42 543 q 58 612 42 583 q 104 659 75 640 q 172 687 133 678 q 251 696 210 696 l 281 696 l 781 696 l 978 696 l 978 0 l 743 0 m 743 550 l 274 550 l 274 421 l 743 421 l 743 550 z "},"Å":{"ha":1019,"x_min":42,"x_max":978,"o":"m 649 1032 q 610 901 649 954 q 515 847 572 847 q 418 901 457 847 q 379 1032 379 954 q 418 1160 379 1107 q 515 1214 457 1214 q 610 1160 572 1214 q 649 1032 649 1107 m 743 0 l 743 274 l 274 274 l 274 165 q 258 86 274 114 q 211 39 243 58 q 141 10 182 21 q 56 0 100 0 l 42 0 l 42 543 q 58 612 42 583 q 104 659 75 640 q 172 687 133 678 q 251 696 210 696 l 978 696 l 978 0 l 743 0 m 579 1032 q 560 1100 579 1072 q 514 1128 542 1128 q 467 1100 486 1128 q 449 1032 449 1072 q 467 964 449 992 q 514 936 486 936 q 560 964 542 936 q 579 1032 579 992 m 743 550 l 274 550 l 274 421 l 743 421 l 743 550 z "},"Ç":{"ha":1017,"x_min":42,"x_max":975,"o":"m 975 140 q 959 77 975 103 q 915 34 943 51 q 849 8 886 17 q 769 0 811 0 l 549 0 l 549 -71 l 603 -71 q 673 -90 644 -71 q 701 -139 701 -108 l 701 -275 q 673 -327 701 -308 q 603 -346 644 -346 l 436 -346 q 362 -329 392 -346 q 332 -278 332 -312 l 332 -168 l 343 -168 q 417 -189 386 -168 q 446 -228 446 -206 l 446 -275 l 594 -275 l 594 -150 l 453 -150 l 453 0 l 243 0 q 166 10 203 0 q 101 40 129 21 q 58 84 74 58 q 42 143 42 110 l 42 551 q 58 610 42 583 q 102 655 74 636 q 168 684 131 674 q 249 694 206 694 l 763 694 q 916 658 857 694 q 975 550 975 621 q 953 490 975 511 q 911 458 931 469 q 843 429 881 440 q 763 418 806 418 l 743 418 l 743 547 l 274 547 l 274 140 l 742 140 l 742 158 q 803 243 742 207 q 954 281 864 281 l 975 281 l 975 140 z "},"É":{"ha":1017,"x_min":42,"x_max":975,"o":"m 564 828 l 457 828 l 515 1103 l 649 1103 l 564 828 m 975 421 q 905 309 975 344 q 717 274 835 274 l 274 274 l 274 143 l 975 143 q 959 78 975 106 q 914 34 943 51 q 847 8 885 17 q 764 0 808 0 l 250 0 q 169 10 207 0 q 103 40 132 21 q 58 85 75 58 q 42 144 42 111 l 42 551 q 58 610 42 583 q 103 655 75 636 q 169 685 132 674 q 249 696 207 696 l 617 696 l 764 696 q 917 658 860 696 q 975 550 975 621 l 274 550 l 274 421 l 975 421 z "},"Ñ":{"ha":924,"x_min":42,"x_max":882,"o":"m 747 929 q 738 873 747 896 q 713 836 728 850 q 677 816 697 822 q 639 810 657 810 q 589 819 608 810 q 543 833 569 828 l 286 899 l 286 828 l 146 828 l 146 929 q 156 985 146 963 q 184 1020 167 1007 q 221 1039 201 1033 q 260 1044 240 1044 q 308 1037 286 1044 q 353 1022 329 1029 l 600 951 l 600 1029 l 747 1029 l 747 929 m 835 3 q 790 5 817 3 q 733 15 764 7 q 672 37 703 22 q 615 76 642 51 l 367 310 l 274 396 l 274 3 l 42 3 l 42 696 l 57 696 l 89 696 q 135 694 107 696 q 192 684 163 692 q 253 662 222 676 q 311 622 285 647 l 558 389 q 574 375 560 388 q 610 342 588 363 q 650 306 632 321 l 650 556 q 709 663 650 629 q 864 696 768 696 l 882 696 l 882 3 l 835 3 z "},"Ö":{"ha":1017,"x_min":42,"x_max":975,"o":"m 546 828 l 546 967 l 672 967 l 672 828 l 546 828 m 358 828 l 358 967 l 485 967 l 485 828 l 358 828 m 975 140 q 958 77 975 103 q 913 34 942 51 q 846 8 885 17 q 763 0 807 0 l 249 0 q 168 10 206 0 q 102 40 131 21 q 58 84 74 58 q 42 143 42 110 l 42 554 q 58 612 42 585 q 102 658 74 639 q 168 686 131 676 q 249 696 206 696 l 265 696 l 763 696 l 765 696 q 917 659 860 696 q 975 551 975 622 l 975 140 m 743 550 l 274 550 l 274 143 l 743 143 l 743 550 z "},"Ü":{"ha":963,"x_min":42,"x_max":921,"o":"m 508 828 l 508 967 l 635 967 l 635 828 l 508 828 m 319 828 l 319 967 l 447 967 l 447 828 l 319 828 m 921 144 q 903 85 921 111 q 858 40 886 58 q 792 10 829 21 q 711 0 754 0 l 251 0 q 170 10 208 0 q 103 40 132 21 q 58 85 75 58 q 42 144 42 111 l 42 696 l 67 696 q 216 669 158 696 q 274 576 274 643 l 274 143 l 689 143 l 689 576 q 748 670 689 644 q 897 696 807 696 l 921 696 l 921 144 z "},"á":{"ha":786,"x_min":42,"x_max":744,"o":"m 450 621 l 371 621 l 414 828 l 513 828 l 450 621 m 568 0 l 568 206 l 217 206 l 217 124 q 205 65 217 86 q 169 29 193 44 q 117 8 147 15 q 53 0 86 0 l 42 0 l 42 407 q 54 459 42 438 q 89 494 67 481 q 140 515 111 508 q 200 522 168 522 l 285 522 l 489 522 l 744 522 l 744 0 l 568 0 m 568 413 l 217 413 l 217 315 l 568 315 l 568 413 z "},"à":{"ha":786,"x_min":42,"x_max":744,"o":"m 357 621 l 294 825 l 394 825 l 438 621 l 357 621 m 568 0 l 568 206 l 217 206 l 217 124 q 205 65 217 86 q 169 29 193 44 q 117 8 147 15 q 53 0 86 0 l 42 0 l 42 407 q 54 459 42 438 q 89 494 67 481 q 140 515 111 508 q 200 522 168 522 l 744 522 l 744 0 l 568 0 m 568 413 l 217 413 l 217 315 l 568 315 l 568 413 z "},"â":{"ha":786,"x_min":42,"x_max":744,"o":"m 388 696 l 250 624 l 250 717 l 388 799 l 525 717 l 525 624 l 388 696 m 568 0 l 568 206 l 217 206 l 217 124 q 205 65 217 86 q 169 29 193 44 q 117 8 147 15 q 53 0 86 0 l 42 0 l 42 407 q 54 459 42 438 q 89 494 67 481 q 140 515 111 508 q 200 522 168 522 l 579 522 l 744 522 l 744 0 l 568 0 m 568 413 l 217 413 l 217 315 l 568 315 l 568 413 z "},"ä":{"ha":786,"x_min":42,"x_max":744,"o":"m 432 621 l 432 725 l 526 725 l 526 621 l 432 621 m 292 621 l 292 725 l 386 725 l 386 621 l 292 621 m 568 0 l 568 206 l 217 206 l 217 124 q 205 65 217 86 q 169 29 193 44 q 117 8 147 15 q 53 0 86 0 l 42 0 l 42 407 q 54 459 42 438 q 89 494 67 481 q 140 515 111 508 q 200 522 168 522 l 221 522 l 596 522 l 744 522 l 744 0 l 568 0 m 568 413 l 217 413 l 217 315 l 568 315 l 568 413 z "},"ã":{"ha":786,"x_min":42,"x_max":744,"o":"m 619 708 q 600 645 619 665 q 556 621 581 625 l 521 621 q 494 628 506 624 q 467 638 483 633 l 274 686 l 274 621 l 214 621 l 168 621 l 168 708 q 176 750 168 733 q 197 777 185 767 q 224 792 210 788 q 254 796 239 796 q 290 790 274 796 q 325 779 306 783 l 508 725 l 508 783 l 619 783 l 619 708 m 568 0 l 568 206 l 217 206 l 217 124 q 205 65 217 86 q 169 29 193 44 q 117 8 147 15 q 53 0 86 0 l 42 0 l 42 407 q 54 459 42 438 q 89 494 67 481 q 140 515 111 508 q 200 522 168 522 l 744 522 l 744 0 l 568 0 m 568 413 l 217 413 l 217 315 l 568 315 l 568 413 z "},"å":{"ha":786,"x_min":42,"x_max":744,"o":"m 497 774 q 469 676 497 715 q 397 636 440 636 q 325 676 354 636 q 296 774 296 715 q 325 871 296 831 q 397 911 354 911 q 469 871 440 911 q 497 774 497 831 m 568 0 l 568 206 l 217 206 l 217 124 q 205 65 217 86 q 169 29 193 44 q 117 8 147 15 q 53 0 86 0 l 42 0 l 42 407 q 54 459 42 438 q 89 494 67 481 q 140 515 111 508 q 200 522 168 522 l 744 522 l 744 0 l 568 0 m 446 774 q 431 825 446 804 q 396 846 417 846 q 361 825 375 846 q 347 774 347 804 q 361 724 347 744 q 396 703 375 703 q 431 724 417 703 q 446 774 446 744 m 568 413 l 217 413 l 217 315 l 568 315 l 568 413 z "},"ç":{"ha":783,"x_min":42,"x_max":742,"o":"m 742 106 q 730 58 742 78 q 697 26 718 39 q 647 6 675 13 q 588 0 619 0 l 422 0 l 422 -53 l 463 -53 q 516 -67 494 -53 q 538 -104 538 -82 l 538 -207 q 516 -246 538 -232 q 463 -260 494 -260 l 338 -260 q 282 -247 304 -260 q 260 -208 260 -235 l 260 -126 l 268 -126 q 324 -142 300 -126 q 346 -171 346 -154 l 346 -207 l 457 -207 l 457 -112 l 350 -112 l 350 0 l 193 0 q 135 8 163 0 q 88 30 108 15 q 54 63 67 44 q 42 107 42 82 l 42 414 q 54 458 42 438 q 88 492 67 478 q 137 513 108 506 q 197 521 165 521 l 583 521 q 698 493 654 521 q 742 413 742 465 q 725 368 742 383 q 694 344 708 353 q 643 322 671 331 q 583 314 615 314 l 568 314 l 568 411 l 217 411 l 217 106 l 567 106 l 567 119 q 613 182 567 156 q 726 211 658 211 l 742 211 l 742 106 z "},"é":{"ha":783,"x_min":42,"x_max":742,"o":"m 433 621 l 354 621 l 397 828 l 497 828 l 433 621 m 742 315 q 690 232 742 258 q 549 206 638 206 l 217 206 l 217 107 l 742 107 q 730 59 742 79 q 697 26 718 39 q 646 6 675 13 q 583 0 617 0 l 199 0 q 138 8 167 0 q 88 30 110 15 q 54 64 67 44 q 42 108 42 83 l 42 414 q 54 458 42 438 q 88 492 67 478 q 138 514 110 506 q 197 522 167 522 l 474 522 l 583 522 q 699 494 656 522 q 742 413 742 465 l 217 413 l 217 315 l 742 315 z "},"è":{"ha":783,"x_min":42,"x_max":742,"o":"m 367 621 l 304 828 l 404 828 l 446 621 l 367 621 m 742 315 q 690 232 742 258 q 549 206 638 206 l 217 206 l 217 107 l 742 107 q 730 59 742 79 q 697 26 718 39 q 646 6 675 13 q 583 0 617 0 l 199 0 q 138 8 167 0 q 88 30 110 15 q 54 64 67 44 q 42 108 42 83 l 42 414 q 54 458 42 438 q 88 492 67 478 q 138 514 110 506 q 197 522 167 522 l 532 522 l 583 522 q 699 494 656 522 q 742 413 742 465 l 217 413 l 217 315 l 742 315 z "},"ê":{"ha":783,"x_min":42,"x_max":742,"o":"m 399 696 l 263 624 l 263 717 l 399 799 l 536 717 l 536 624 l 399 696 m 742 315 q 690 232 742 258 q 549 206 638 206 l 217 206 l 217 107 l 742 107 q 730 59 742 79 q 697 26 718 39 q 646 6 675 13 q 583 0 617 0 l 199 0 q 138 8 167 0 q 88 30 110 15 q 54 64 67 44 q 42 108 42 83 l 42 414 q 54 458 42 438 q 88 492 67 478 q 138 514 110 506 q 197 522 167 522 l 583 522 q 699 494 656 522 q 742 413 742 465 l 217 413 l 217 315 l 742 315 z "},"ë":{"ha":783,"x_min":42,"x_max":742,"o":"m 421 621 l 421 725 l 515 725 l 515 621 l 421 621 m 279 621 l 279 725 l 375 725 l 375 621 l 279 621 m 742 315 q 690 232 742 258 q 549 206 638 206 l 217 206 l 217 107 l 742 107 q 730 59 742 79 q 697 26 718 39 q 646 6 675 13 q 583 0 617 0 l 199 0 q 138 8 167 0 q 88 30 110 15 q 54 64 67 44 q 42 108 42 83 l 42 414 q 54 458 42 438 q 88 492 67 478 q 138 514 110 506 q 197 522 167 522 l 210 522 l 583 522 l 585 522 q 699 494 656 522 q 742 413 742 465 l 217 413 l 217 315 l 742 315 z "},"í":{"ha":282,"x_min":42,"x_max":240,"o":"m 175 621 l 96 621 l 142 839 l 240 839 l 175 621 m 197 -1 q 138 6 167 -1 q 88 28 110 14 q 54 62 67 42 q 42 107 42 82 l 42 522 l 58 522 q 174 494 131 522 q 217 413 217 465 l 217 -1 l 197 -1 z "},"ì":{"ha":281,"x_min":42,"x_max":239,"o":"m 108 621 l 42 839 l 142 839 l 188 621 l 108 621 m 239 107 q 226 62 239 82 q 193 28 214 42 q 144 6 172 14 q 85 -1 117 -1 l 65 -1 l 65 413 q 108 494 65 465 q 222 522 151 522 l 239 522 l 239 107 z "},"î":{"ha":263,"x_min":42,"x_max":221,"o":"m 133 697 l 42 624 l 42 732 l 133 815 l 221 732 l 221 624 l 133 697 m 189 0 q 81 35 117 0 q 46 124 46 69 l 46 522 l 65 522 q 184 490 147 522 q 221 397 221 457 l 221 0 l 189 0 z "},"ï":{"ha":263,"x_min":42,"x_max":221,"o":"m 146 631 l 146 742 l 221 742 l 221 631 l 146 631 m 42 631 l 42 742 l 117 742 l 117 631 l 42 631 m 189 0 q 81 35 117 0 q 46 124 46 69 l 46 522 l 65 522 q 184 490 147 522 q 221 397 221 457 l 221 0 l 189 0 z "},"ñ":{"ha":714,"x_min":42,"x_max":672,"o":"m 571 697 q 564 655 571 672 q 545 627 557 638 q 519 612 533 617 q 490 607 504 607 q 452 614 467 607 q 418 625 438 621 l 225 674 l 225 621 l 121 621 l 121 697 q 128 739 121 722 q 149 765 136 756 q 177 779 163 775 q 206 783 192 783 q 242 778 225 783 q 275 767 258 772 l 461 714 l 461 772 l 571 772 l 571 697 m 638 3 q 603 4 624 3 q 560 11 583 6 q 515 28 538 17 q 472 57 492 39 l 286 232 l 217 297 l 217 3 l 42 3 l 42 522 l 54 522 l 78 522 q 113 521 92 522 q 156 513 133 519 q 201 497 178 507 q 244 467 225 486 l 429 292 q 441 281 431 290 q 468 256 451 272 q 499 229 485 240 l 499 417 q 543 497 499 472 q 658 522 588 522 l 672 522 l 672 3 l 638 3 z "},"ó":{"ha":783,"x_min":42,"x_max":742,"o":"m 433 619 l 354 619 l 397 828 l 497 828 l 433 619 m 742 106 q 729 58 742 78 q 696 26 717 39 q 646 6 675 13 q 583 0 617 0 l 197 0 q 137 8 165 0 q 88 30 108 15 q 54 63 67 44 q 42 107 42 82 l 42 415 q 54 459 42 439 q 88 493 67 479 q 137 515 108 507 q 197 522 165 522 l 583 522 q 698 494 654 522 q 742 414 742 467 l 742 106 m 568 413 l 217 413 l 217 107 l 568 107 l 568 413 z "},"ò":{"ha":783,"x_min":42,"x_max":742,"o":"m 347 621 l 283 829 l 383 829 l 428 621 l 347 621 m 742 106 q 729 58 742 78 q 696 26 717 39 q 646 6 675 13 q 583 0 617 0 l 197 0 q 137 8 165 0 q 88 30 108 15 q 54 63 67 44 q 42 107 42 82 l 42 415 q 54 459 42 439 q 88 493 67 479 q 137 515 108 507 q 197 522 165 522 l 583 522 q 698 494 654 522 q 742 414 742 467 l 742 106 m 568 413 l 217 413 l 217 107 l 568 107 l 568 413 z "},"ô":{"ha":783,"x_min":42,"x_max":742,"o":"m 396 696 l 258 624 l 258 717 l 396 799 l 533 717 l 533 624 l 396 696 m 742 106 q 729 58 742 78 q 696 26 717 39 q 646 6 675 13 q 583 0 617 0 l 197 0 q 137 8 165 0 q 88 30 108 15 q 54 63 67 44 q 42 107 42 82 l 42 415 q 54 459 42 439 q 88 493 67 479 q 137 515 108 507 q 197 522 165 522 l 583 522 q 698 494 654 522 q 742 414 742 467 l 742 106 m 568 413 l 217 413 l 217 107 l 568 107 l 568 413 z "},"ö":{"ha":783,"x_min":42,"x_max":742,"o":"m 421 621 l 421 725 l 515 725 l 515 621 l 421 621 m 279 621 l 279 725 l 375 725 l 375 621 l 279 621 m 742 106 q 729 58 742 78 q 696 26 717 39 q 646 6 675 13 q 583 0 617 0 l 197 0 q 137 8 165 0 q 88 30 108 15 q 54 63 67 44 q 42 107 42 82 l 42 415 q 54 459 42 439 q 88 493 67 479 q 137 515 108 507 q 197 522 165 522 l 210 522 l 583 522 l 585 522 q 699 494 656 522 q 742 414 742 467 l 742 106 m 568 413 l 217 413 l 217 107 l 568 107 l 568 413 z "},"õ":{"ha":783,"x_min":42,"x_max":742,"o":"m 618 707 q 601 647 618 667 q 561 621 583 628 l 511 621 q 489 628 500 624 q 465 636 478 632 l 272 683 l 272 619 l 167 619 l 167 707 q 175 749 167 732 q 196 776 183 765 q 223 790 208 786 q 253 794 238 794 q 288 788 272 794 q 324 778 304 782 l 508 724 l 508 782 l 618 782 l 618 707 m 742 106 q 729 58 742 78 q 696 26 717 39 q 646 6 675 13 q 583 0 617 0 l 197 0 q 137 8 165 0 q 88 30 108 15 q 54 63 67 44 q 42 107 42 82 l 42 415 q 54 459 42 439 q 88 493 67 479 q 137 515 108 507 q 197 522 165 522 l 583 522 q 698 494 654 522 q 742 414 742 467 l 742 106 m 568 413 l 217 413 l 217 107 l 568 107 l 568 413 z "},"ú":{"ha":743,"x_min":42,"x_max":701,"o":"m 442 611 l 350 611 l 396 829 l 496 829 l 442 611 m 701 108 q 688 64 701 83 q 654 30 675 44 q 605 8 633 15 q 544 0 576 0 l 200 0 q 138 8 167 0 q 88 30 110 15 q 54 64 67 44 q 42 108 42 83 l 42 522 l 61 522 q 173 502 129 522 q 217 432 217 482 l 217 107 l 528 107 l 528 432 q 572 503 528 483 q 683 522 617 522 l 701 522 l 701 108 z "},"ù":{"ha":743,"x_min":42,"x_max":701,"o":"m 308 611 l 243 829 l 354 829 l 400 611 l 308 611 m 701 108 q 688 64 701 83 q 654 30 675 44 q 605 8 633 15 q 544 0 576 0 l 200 0 q 138 8 167 0 q 88 30 110 15 q 54 64 67 44 q 42 108 42 83 l 42 522 l 61 522 q 173 502 129 522 q 217 432 217 482 l 217 107 l 528 107 l 528 432 q 572 503 528 483 q 683 522 617 522 l 701 522 l 701 108 z "},"û":{"ha":743,"x_min":42,"x_max":701,"o":"m 375 657 l 239 586 l 239 679 l 375 761 l 513 679 l 513 586 l 375 657 m 701 108 q 688 64 701 83 q 654 30 675 44 q 605 8 633 15 q 544 0 576 0 l 200 0 q 138 8 167 0 q 88 30 110 15 q 54 64 67 44 q 42 108 42 83 l 42 522 l 61 522 q 173 502 129 522 q 217 432 217 482 l 217 107 l 528 107 l 528 432 q 572 503 528 483 q 683 522 617 522 l 701 522 l 701 108 z "},"ü":{"ha":743,"x_min":42,"x_max":701,"o":"m 392 621 l 392 725 l 488 725 l 488 621 l 392 621 m 250 621 l 250 725 l 346 725 l 346 621 l 250 621 m 701 108 q 688 64 701 83 q 654 30 675 44 q 605 8 633 15 q 544 0 576 0 l 200 0 q 138 8 167 0 q 88 30 110 15 q 54 64 67 44 q 42 108 42 83 l 42 522 l 61 522 q 173 502 129 522 q 217 432 217 482 l 217 107 l 528 107 l 528 432 q 572 503 528 483 q 683 522 617 522 l 701 522 l 701 108 z "},"¨":{"ha":453,"x_min":69,"x_max":383,"o":"m 257 828 l 257 967 l 383 967 l 383 828 l 257 828 m 69 828 l 69 967 l 196 967 l 196 828 l 69 828 z "},"Æ":{"ha":1717,"x_min":42,"x_max":1675,"o":"m 1675 421 q 1657 347 1675 376 q 1604 301 1639 318 q 1522 279 1569 285 q 1415 274 1474 274 l 976 274 l 976 143 l 1675 143 q 1659 78 1675 106 q 1614 34 1643 51 q 1547 8 1585 17 q 1464 0 1508 0 l 947 0 q 869 10 907 0 q 803 40 832 21 q 759 85 775 58 q 743 144 743 111 l 743 274 l 274 274 l 274 163 q 258 83 274 111 q 211 39 242 56 q 140 10 182 21 q 57 0 99 0 l 42 0 l 42 544 q 58 614 42 585 q 103 660 75 643 q 170 687 132 678 q 251 696 208 696 l 1464 696 q 1617 658 1558 696 q 1675 550 1675 621 l 976 550 l 976 421 l 1675 421 m 743 550 l 274 550 l 274 421 l 743 421 l 743 550 z "},"Ø":{"ha":1017,"x_min":42,"x_max":975,"o":"m 975 140 q 958 77 975 103 q 913 34 942 51 q 846 8 885 17 q 763 0 807 0 l 589 0 l 589 -131 l 428 -131 l 428 0 l 249 0 q 168 10 206 0 q 102 40 131 21 q 58 84 74 58 q 42 143 42 110 l 42 551 q 58 610 42 583 q 102 655 74 636 q 168 685 131 674 q 249 696 206 696 l 428 696 l 428 828 l 589 828 l 589 696 l 763 696 q 916 658 857 696 q 975 550 975 621 l 975 140 m 743 550 l 589 550 l 589 143 l 743 143 l 743 550 m 428 550 l 274 550 l 274 143 l 428 143 l 428 550 z "},"º":{"ha":1165,"x_min":69,"x_max":1096,"o":"m 1096 144 q 1039 36 1096 72 q 896 0 982 0 l 372 0 q 293 10 331 0 q 226 40 256 21 q 180 85 197 58 q 163 144 163 111 l 163 274 l 69 274 l 69 421 l 746 421 l 746 410 q 728 360 746 385 q 681 318 711 336 q 613 285 651 300 q 533 269 575 269 l 394 269 l 394 139 l 865 139 l 865 550 l 163 550 l 163 576 q 182 622 164 600 q 226 661 200 644 q 285 687 251 678 q 354 696 318 696 l 897 696 q 976 685 939 696 q 1039 653 1013 674 q 1081 607 1065 633 q 1096 550 1096 581 l 1096 144 l 1096 144 z "},"æ":{"ha":1308,"x_min":42,"x_max":1267,"o":"m 1267 315 q 1253 260 1267 282 q 1214 226 1240 239 q 1152 210 1188 214 q 1072 206 1117 206 l 743 206 l 743 107 l 1267 107 q 1255 59 1267 79 q 1222 26 1243 39 q 1171 6 1200 13 q 1108 0 1142 0 l 721 0 q 663 8 692 0 q 613 30 635 15 q 580 64 592 44 q 568 108 568 83 l 568 206 l 217 206 l 217 122 q 204 63 217 83 q 169 29 192 42 q 116 8 147 15 q 54 0 85 0 l 42 0 l 42 408 q 54 460 42 439 q 88 495 67 482 q 138 515 110 508 q 200 522 167 522 l 1108 522 q 1223 494 1179 522 q 1267 413 1267 465 l 743 413 l 743 315 l 1267 315 m 568 413 l 217 413 l 217 315 l 568 315 l 568 413 z "},"ø":{"ha":783,"x_min":42,"x_max":742,"o":"m 742 106 q 729 58 742 78 q 696 26 717 39 q 646 6 675 13 q 583 0 617 0 l 453 0 l 453 -99 l 332 -99 l 332 0 l 197 0 q 137 8 165 0 q 88 30 108 15 q 54 63 67 44 q 42 107 42 82 l 42 414 q 54 458 42 438 q 88 492 67 478 q 137 514 108 506 q 197 522 165 522 l 332 522 l 332 621 l 453 621 l 453 522 l 583 522 q 698 494 654 522 q 742 413 742 465 l 742 106 m 568 413 l 453 413 l 453 107 l 568 107 l 568 413 m 332 413 l 217 413 l 217 107 l 332 107 l 332 413 z "},"¿":{"ha":1074,"x_min":69,"x_max":1004,"o":"m 419 547 l 419 696 l 653 696 l 653 547 l 419 547 m 1004 129 q 946 36 1004 72 q 769 0 888 0 l 281 0 q 200 10 238 0 q 134 38 163 21 q 88 76 106 54 q 69 122 71 99 l 69 300 q 119 392 69 363 q 283 422 169 422 l 419 422 l 419 469 l 653 469 l 653 411 q 636 348 653 374 q 590 307 619 322 q 522 284 561 292 q 440 276 483 276 l 301 276 l 300 147 l 771 147 l 771 276 l 790 276 q 847 274 811 276 q 919 258 883 272 q 979 215 954 244 q 1004 129 1004 185 z "},"«":{"ha":643,"x_min":69,"x_max":574,"o":"m 481 -42 q 438 -16 454 -42 q 410 32 421 10 l 292 350 l 410 663 q 438 707 421 685 q 481 729 454 729 l 572 729 l 422 350 l 574 -42 l 481 -42 m 256 -42 q 214 -16 231 -42 q 186 32 197 10 l 69 350 l 186 663 q 214 707 197 685 q 256 729 231 729 l 349 729 l 199 350 l 350 -42 l 256 -42 z "},"»":{"ha":643,"x_min":69,"x_max":574,"o":"m 456 32 q 428 -16 444 10 q 386 -42 411 -42 l 292 -42 l 443 350 l 293 729 l 386 729 q 428 707 411 729 q 456 663 444 685 l 574 350 l 456 32 m 232 32 q 205 -16 222 10 q 163 -42 188 -42 l 69 -42 l 219 350 l 71 729 l 163 729 q 205 707 188 729 q 232 663 222 685 l 350 350 l 232 32 z "}," ":{"ha":347,"x_min":0,"x_max":0,"o":""},"À":{"ha":1019,"x_min":42,"x_max":978,"o":"m 461 828 l 378 1100 l 511 1100 l 569 828 l 461 828 m 743 0 l 743 274 l 274 274 l 274 165 q 258 86 274 114 q 211 39 243 58 q 141 10 182 21 q 56 0 100 0 l 42 0 l 42 543 q 58 612 42 583 q 104 659 75 640 q 172 687 133 678 q 251 696 210 696 l 978 696 l 978 0 l 743 0 m 743 550 l 274 550 l 274 421 l 743 421 l 743 550 z "},"Ã":{"ha":1019,"x_min":42,"x_max":978,"o":"m 811 944 q 785 860 811 888 q 726 828 760 833 l 679 828 q 644 838 660 832 q 607 850 629 844 l 350 914 l 350 828 l 271 828 l 210 828 l 210 944 q 221 1000 210 978 q 249 1036 232 1022 q 285 1056 265 1050 q 325 1061 304 1061 q 372 1053 350 1061 q 418 1039 393 1044 l 664 967 l 664 1044 l 811 1044 l 811 944 m 743 0 l 743 274 l 274 274 l 274 165 q 258 86 274 114 q 211 39 243 58 q 141 10 182 21 q 56 0 100 0 l 42 0 l 42 543 q 58 612 42 583 q 104 659 75 640 q 172 687 133 678 q 251 696 210 696 l 978 696 l 978 0 l 743 0 m 743 550 l 274 550 l 274 421 l 743 421 l 743 550 z "},"Õ":{"ha":1017,"x_min":42,"x_max":975,"o":"m 810 943 q 787 863 810 889 q 733 828 764 836 l 667 828 q 637 838 651 832 q 606 847 622 843 l 349 911 l 349 825 l 208 825 l 208 943 q 219 999 208 976 q 247 1034 229 1021 q 283 1053 264 1047 q 322 1058 303 1058 q 370 1051 349 1058 q 417 1036 392 1043 l 663 965 l 663 1043 l 810 1043 l 810 943 m 975 140 q 958 77 975 103 q 913 34 942 51 q 846 8 885 17 q 763 0 807 0 l 249 0 q 168 10 206 0 q 102 40 131 21 q 58 84 74 58 q 42 143 42 110 l 42 554 q 58 612 42 585 q 102 658 74 639 q 168 686 131 676 q 249 696 206 696 l 763 696 q 916 659 857 696 q 975 551 975 622 l 975 140 m 743 550 l 274 550 l 274 143 l 743 143 l 743 550 z "},"–":{"ha":558,"x_min":69,"x_max":489,"o":"m 69 272 l 69 418 l 489 418 l 489 272 l 69 272 z "},"—":{"ha":969,"x_min":69,"x_max":900,"o":"m 69 272 l 69 418 l 900 418 l 900 272 l 69 272 z "},"“":{"ha":719,"x_min":69,"x_max":650,"o":"m 553 411 l 401 411 l 401 532 l 579 694 l 650 694 l 650 507 l 553 411 m 221 411 l 69 411 l 69 532 l 247 694 l 319 694 l 319 507 l 221 411 z "},"”":{"ha":719,"x_min":69,"x_max":650,"o":"m 471 411 l 401 411 l 401 600 l 497 694 l 650 694 l 650 576 l 471 411 m 140 411 l 69 411 l 69 600 l 165 694 l 318 694 l 318 576 l 140 411 z "},"‘":{"ha":386,"x_min":69,"x_max":317,"o":"m 221 411 l 69 411 l 69 532 l 247 694 l 317 694 l 317 507 l 221 411 z "},"’":{"ha":388,"x_min":69,"x_max":318,"o":"m 140 411 l 69 411 l 69 600 l 165 694 l 318 694 l 318 576 l 140 411 z "},"ÿ":{"ha":785,"x_min":42,"x_max":743,"o":"m 500 621 l 408 621 l 408 725 l 504 725 l 504 621 l 500 621 m 268 621 l 268 725 l 363 725 l 363 621 l 268 621 m 743 106 q 726 51 743 72 q 683 19 708 31 q 627 3 658 7 q 569 0 596 0 l 204 0 l 204 11 q 224 67 204 47 q 269 97 243 88 q 322 106 294 106 q 365 107 350 107 l 569 107 l 569 206 l 203 206 q 160 204 188 206 q 106 208 133 203 q 60 232 79 214 q 42 289 42 250 l 42 521 l 57 521 q 101 519 74 521 q 154 508 129 517 q 198 481 179 500 q 217 428 217 463 l 217 315 l 569 315 l 569 522 l 743 522 l 743 106 z "},"Ÿ":{"ha":1028,"x_min":10,"x_max":944,"o":"m 619 828 l 499 828 l 499 967 l 625 967 l 625 828 l 619 828 m 311 828 l 311 967 l 438 967 l 438 828 l 311 828 m 944 140 q 922 68 944 96 q 865 25 899 40 q 790 5 831 10 q 713 0 749 0 l 226 0 l 226 14 q 252 90 226 63 q 312 128 278 117 q 383 142 346 140 q 440 143 419 143 l 713 143 l 713 274 l 224 274 q 167 272 203 274 q 95 277 131 269 q 35 309 60 285 q 10 385 10 333 l 10 694 l 29 694 q 88 692 51 694 q 159 678 125 689 q 218 642 193 667 q 243 569 243 617 l 243 421 l 713 421 l 713 696 l 944 696 l 944 140 z "},"Â":{"ha":1019,"x_min":42,"x_max":978,"o":"m 501 928 l 319 832 l 319 956 l 501 1065 l 685 956 l 685 832 l 501 928 m 743 0 l 743 274 l 274 274 l 274 165 q 258 86 274 114 q 211 39 243 58 q 141 10 182 21 q 56 0 100 0 l 42 0 l 42 543 q 58 612 42 583 q 104 659 75 640 q 172 687 133 678 q 251 696 210 696 l 757 696 l 978 696 l 978 0 l 743 0 m 743 550 l 274 550 l 274 421 l 743 421 l 743 550 z "},"Ê":{"ha":1017,"x_min":42,"x_max":975,"o":"m 517 928 l 335 832 l 335 956 l 517 1065 l 700 956 l 700 832 l 517 928 m 975 421 q 905 309 975 344 q 717 274 835 274 l 274 274 l 274 143 l 975 143 q 959 78 975 106 q 914 34 943 51 q 847 8 885 17 q 764 0 808 0 l 250 0 q 169 10 207 0 q 103 40 132 21 q 58 85 75 58 q 42 144 42 111 l 42 551 q 58 610 42 583 q 103 655 75 636 q 169 685 132 674 q 249 696 207 696 l 764 696 q 917 658 860 696 q 975 550 975 621 l 274 550 l 274 421 l 975 421 z "},"Á":{"ha":1019,"x_min":42,"x_max":978,"o":"m 586 828 l 479 828 l 538 1103 l 669 1103 l 586 828 m 743 0 l 743 274 l 274 274 l 274 165 q 258 86 274 114 q 211 39 243 58 q 141 10 182 21 q 56 0 100 0 l 42 0 l 42 543 q 58 612 42 583 q 104 659 75 640 q 172 687 133 678 q 251 696 210 696 l 365 696 l 638 696 l 978 696 l 978 0 l 743 0 m 743 550 l 274 550 l 274 421 l 743 421 l 743 550 z "},"Ë":{"ha":1017,"x_min":42,"x_max":975,"o":"m 546 828 l 546 967 l 672 967 l 672 828 l 546 828 m 358 828 l 358 967 l 485 967 l 485 828 l 358 828 m 975 421 q 905 309 975 344 q 717 274 835 274 l 274 274 l 274 143 l 975 143 q 959 78 975 106 q 914 34 943 51 q 847 8 885 17 q 764 0 808 0 l 250 0 q 169 10 207 0 q 103 40 132 21 q 58 85 75 58 q 42 144 42 111 l 42 551 q 58 610 42 583 q 103 655 75 636 q 169 685 132 674 q 249 696 207 696 l 265 696 l 764 696 l 765 696 q 917 658 860 696 q 975 550 975 621 l 274 550 l 274 421 l 975 421 z "},"È":{"ha":1017,"x_min":42,"x_max":975,"o":"m 474 828 l 390 1103 l 524 1103 l 581 828 l 474 828 m 975 421 q 905 309 975 344 q 717 274 835 274 l 274 274 l 274 143 l 975 143 q 959 78 975 106 q 914 34 943 51 q 847 8 885 17 q 764 0 808 0 l 250 0 q 169 10 207 0 q 103 40 132 21 q 58 85 75 58 q 42 144 42 111 l 42 551 q 58 610 42 583 q 103 655 75 636 q 169 685 132 674 q 249 696 207 696 l 694 696 l 764 696 q 917 658 860 696 q 975 550 975 621 l 274 550 l 274 421 l 975 421 z "},"Í":{"ha":347,"x_min":42,"x_max":306,"o":"m 218 828 l 113 828 l 174 1118 l 306 1118 l 218 828 m 249 -1 q 169 8 207 -1 q 103 37 132 18 q 58 83 75 56 q 42 143 42 110 l 42 696 l 63 696 q 217 658 160 696 q 274 550 274 621 l 274 -1 l 249 -1 z "},"Î":{"ha":321,"x_min":42,"x_max":279,"o":"m 164 929 l 42 832 l 42 976 l 164 1088 l 279 976 l 279 832 l 164 929 m 238 0 q 94 46 140 0 q 47 165 47 92 l 47 696 l 72 696 q 231 653 182 696 q 279 529 279 610 l 279 0 l 238 0 z "},"Ï":{"ha":322,"x_min":42,"x_max":281,"o":"m 182 840 l 182 989 l 281 989 l 281 840 l 182 840 m 42 840 l 42 989 l 143 989 l 143 840 l 42 840 m 239 0 q 95 46 142 0 q 49 165 49 92 l 49 696 l 74 696 q 232 653 183 696 q 281 529 281 610 l 281 0 l 239 0 z "},"Ì":{"ha":346,"x_min":42,"x_max":304,"o":"m 131 828 l 42 1118 l 175 1118 l 236 828 l 131 828 m 304 143 q 288 83 304 110 q 244 37 272 56 q 178 8 215 18 q 100 -1 142 -1 l 74 -1 l 74 550 q 131 658 74 621 q 283 696 188 696 l 304 696 l 304 143 z "},"Ó":{"ha":1017,"x_min":42,"x_max":975,"o":"m 563 825 l 457 825 l 515 1103 l 649 1103 l 563 825 m 975 140 q 958 77 975 103 q 913 34 942 51 q 846 8 885 17 q 763 0 807 0 l 249 0 q 168 10 206 0 q 102 40 131 21 q 58 84 74 58 q 42 143 42 110 l 42 554 q 58 612 42 585 q 102 658 74 639 q 168 686 131 676 q 249 696 206 696 l 763 696 q 916 659 857 696 q 975 551 975 622 l 975 140 m 743 550 l 274 550 l 274 143 l 743 143 l 743 550 z "},"Ô":{"ha":1017,"x_min":42,"x_max":975,"o":"m 513 928 l 331 832 l 331 956 l 513 1065 l 696 956 l 696 832 l 513 928 m 975 140 q 958 77 975 103 q 913 34 942 51 q 846 8 885 17 q 763 0 807 0 l 249 0 q 168 10 206 0 q 102 40 131 21 q 58 84 74 58 q 42 143 42 110 l 42 554 q 58 612 42 585 q 102 658 74 639 q 168 686 131 676 q 249 696 206 696 l 763 696 q 916 659 857 696 q 975 551 975 622 l 975 140 m 743 550 l 274 550 l 274 143 l 743 143 l 743 550 z "},"Ò":{"ha":1017,"x_min":42,"x_max":975,"o":"m 449 828 l 364 1106 l 497 1106 l 556 828 l 449 828 m 975 140 q 958 77 975 103 q 913 34 942 51 q 846 8 885 17 q 763 0 807 0 l 249 0 q 168 10 206 0 q 102 40 131 21 q 58 84 74 58 q 42 143 42 110 l 42 554 q 58 612 42 585 q 102 658 74 639 q 168 686 131 676 q 249 696 206 696 l 763 696 q 916 659 857 696 q 975 551 975 622 l 975 140 m 743 550 l 274 550 l 274 143 l 743 143 l 743 550 z "},"Ú":{"ha":963,"x_min":42,"x_max":921,"o":"m 574 814 l 453 814 l 514 1106 l 647 1106 l 574 814 m 921 144 q 903 85 921 111 q 858 40 886 58 q 792 10 829 21 q 711 0 754 0 l 251 0 q 170 10 208 0 q 103 40 132 21 q 58 85 75 58 q 42 144 42 111 l 42 696 l 67 696 q 216 669 158 696 q 274 576 274 643 l 274 143 l 689 143 l 689 576 q 748 670 689 644 q 897 696 807 696 l 921 696 l 921 144 z "},"Û":{"ha":963,"x_min":42,"x_max":921,"o":"m 486 876 l 304 781 l 304 906 l 486 1014 l 669 906 l 669 781 l 486 876 m 921 144 q 903 85 921 111 q 858 40 886 58 q 792 10 829 21 q 711 0 754 0 l 251 0 q 170 10 208 0 q 103 40 132 21 q 58 85 75 58 q 42 144 42 111 l 42 696 l 67 696 q 216 669 158 696 q 274 576 274 643 l 274 143 l 689 143 l 689 576 q 748 670 689 644 q 897 696 807 696 l 921 696 l 921 144 z "},"Ù":{"ha":963,"x_min":42,"x_max":921,"o":"m 397 814 l 310 1106 l 457 1106 l 518 814 l 397 814 m 921 144 q 903 85 921 111 q 858 40 886 58 q 792 10 829 21 q 711 0 754 0 l 251 0 q 170 10 208 0 q 103 40 132 21 q 58 85 75 58 q 42 144 42 111 l 42 696 l 67 696 q 216 669 158 696 q 274 576 274 643 l 274 143 l 689 143 l 689 576 q 748 670 689 644 q 897 696 807 696 l 921 696 l 921 144 z "},"ˆ":{"ha":504,"x_min":69,"x_max":435,"o":"m 251 928 l 69 832 l 69 956 l 251 1065 l 435 956 l 435 832 l 251 928 z "},"˜":{"ha":740,"x_min":69,"x_max":671,"o":"m 671 929 q 661 873 671 896 q 636 836 651 850 q 601 816 621 822 q 563 810 581 810 q 513 819 532 810 q 467 833 493 828 l 210 899 l 210 811 l 69 811 l 69 929 q 80 985 69 963 q 108 1020 90 1007 q 144 1039 125 1033 q 183 1044 164 1044 q 231 1037 210 1044 q 276 1022 253 1029 l 524 951 l 524 1029 l 671 1029 l 671 929 l 671 929 z "},"ý":{"ha":0,"x_min":0,"x_max":0,"o":""},"А":{"ha":1019,"x_min":42,"x_max":978,"o":"m 743 0 l 743 274 l 274 274 l 274 165 q 258 86 274 114 q 211 39 243 58 q 141 10 182 21 q 56 0 100 0 l 42 0 l 42 543 q 58 612 42 583 q 104 659 75 640 q 172 687 133 678 q 251 696 210 696 l 978 696 l 978 0 l 743 0 m 743 550 l 274 550 l 274 421 l 743 421 l 743 550 z "},"Б":{"ha":1017,"x_min":42,"x_max":975,"o":"m 975 133 q 920 39 975 78 q 742 0 865 0 l 249 0 q 169 10 207 0 q 103 40 132 21 q 58 84 75 58 q 42 143 42 110 l 42 551 q 63 622 42 594 q 118 667 85 650 q 193 690 151 683 q 274 696 235 696 l 975 696 l 975 683 q 955 623 975 647 q 901 582 935 599 q 826 558 868 565 q 743 550 785 550 l 274 550 l 274 421 l 768 421 q 846 414 808 421 q 914 389 883 407 q 975 299 975 354 l 975 133 m 743 274 l 274 274 l 274 143 l 743 143 l 743 274 z "},"В":{"ha":1017,"x_min":42,"x_max":975,"o":"m 975 176 q 956 90 975 125 q 905 36 938 56 q 831 8 872 17 q 743 0 789 0 l 42 0 l 42 696 l 744 696 q 915 660 856 696 q 975 572 975 625 l 975 554 q 958 495 975 525 q 908 447 940 465 q 801 418 867 425 l 801 417 q 859 403 832 411 q 910 378 886 394 q 958 334 940 361 q 975 276 975 307 l 975 176 m 274 274 l 274 143 l 744 143 l 744 274 l 274 274 m 744 550 l 274 550 l 274 421 l 744 421 l 744 550 z "},"Г":{"ha":936,"x_min":42,"x_max":894,"o":"m 894 696 q 885 635 894 667 q 846 585 875 603 q 775 558 815 567 q 663 550 735 550 l 274 550 l 274 163 q 214 29 274 65 q 144 6 183 11 q 65 0 106 0 l 42 0 l 42 550 q 63 635 42 606 q 116 678 85 665 q 184 694 147 692 q 251 696 221 696 l 894 696 z "},"Д":{"ha":1115,"x_min":42,"x_max":1074,"o":"m 42 -78 l 42 181 l 139 181 l 139 540 q 155 610 139 582 q 200 656 171 638 q 267 684 229 675 q 346 693 304 693 l 978 693 l 978 181 l 1074 181 l 1074 -78 l 892 -78 l 892 0 l 225 0 l 225 -78 l 42 -78 m 369 181 l 743 181 l 743 547 l 369 547 l 369 181 z "},"Е":{"ha":1017,"x_min":42,"x_max":975,"o":"m 717 274 l 274 274 l 274 143 l 975 143 q 959 78 975 106 q 914 34 943 51 q 847 8 885 17 q 764 0 808 0 l 250 0 q 169 10 207 0 q 103 40 132 21 q 58 85 75 58 q 42 144 42 111 l 42 551 q 58 610 42 583 q 103 655 75 636 q 169 685 132 674 q 249 696 207 696 l 764 696 q 917 658 860 696 q 975 550 975 621 l 274 550 l 274 421 l 717 421 l 717 274 z "},"Ж":{"ha":1646,"x_min":42,"x_max":1604,"o":"m 1426 0 q 1355 7 1383 0 q 1305 24 1326 14 q 1267 46 1283 33 q 1233 69 1250 58 l 939 321 l 939 0 l 707 0 l 707 321 l 413 69 q 379 46 396 58 q 341 24 363 33 q 291 7 319 14 q 219 0 263 0 l 42 0 l 464 369 l 147 696 l 404 696 l 707 389 l 707 696 l 939 696 l 939 389 l 1242 696 l 1499 696 l 1182 369 l 1604 0 l 1426 0 z "},"З":{"ha":1017,"x_min":42,"x_max":975,"o":"m 975 140 q 956 72 975 99 q 902 29 936 44 q 826 7 868 14 q 742 0 785 0 l 243 0 q 94 39 146 0 q 42 122 42 78 l 42 143 l 743 143 l 743 272 l 340 272 q 239 288 275 272 q 184 324 203 303 q 161 366 165 344 q 157 400 157 388 l 157 421 l 743 421 l 743 550 l 210 550 q 81 585 117 550 q 42 672 46 621 l 42 694 l 975 694 l 975 565 q 968 523 975 547 q 943 475 961 499 q 891 435 925 451 q 806 418 857 418 l 806 411 q 863 401 836 407 q 911 383 890 396 q 957 341 939 365 q 975 263 975 317 l 975 140 z "},"И":{"ha":924,"x_min":42,"x_max":882,"o":"m 42 3 l 42 696 l 60 696 q 215 663 156 696 q 274 556 274 629 l 274 306 q 314 342 292 321 q 350 375 336 363 q 365 389 364 388 l 613 622 q 670 662 639 647 q 731 684 701 676 q 789 694 761 692 q 835 696 817 696 l 882 696 l 882 3 l 650 3 l 650 396 l 557 310 l 308 76 q 251 37 282 51 q 190 15 221 22 q 133 5 160 7 q 89 3 107 3 l 42 3 z "},"Й":{"ha":924,"x_min":42,"x_max":882,"o":"m 42 3 l 42 696 l 60 696 q 215 663 156 696 q 274 556 274 629 l 274 306 q 314 342 292 321 q 350 375 336 363 q 365 389 364 388 l 613 622 q 670 662 639 647 q 731 684 701 676 q 789 694 761 692 q 835 696 817 696 l 882 696 l 882 3 l 650 3 l 650 396 l 557 310 l 308 76 q 251 37 282 51 q 190 15 221 22 q 133 5 160 7 q 89 3 107 3 l 42 3 m 640 958 l 640 835 l 457 725 l 275 835 l 275 958 l 457 863 l 640 958 z "},"К":{"ha":981,"x_min":42,"x_max":939,"o":"m 761 0 q 690 7 718 0 q 640 24 661 14 q 601 46 618 33 q 568 69 585 58 l 274 321 l 274 133 q 256 70 274 96 q 210 29 239 44 q 142 7 181 14 q 63 0 104 0 l 42 0 l 42 696 l 274 696 l 274 389 l 576 696 l 833 696 l 517 369 l 939 0 l 761 0 z "},"Л":{"ha":1019,"x_min":42,"x_max":978,"o":"m 743 550 l 274 550 l 274 0 l 42 0 l 42 543 q 58 612 42 583 q 104 659 75 640 q 172 687 133 678 q 251 696 210 696 l 978 696 l 978 0 l 743 0 l 743 550 z "},"М":{"ha":1103,"x_min":42,"x_max":1061,"o":"m 1039 0 q 957 9 996 0 q 890 36 918 18 q 846 81 863 54 q 829 144 829 107 l 829 428 l 553 117 l 274 428 l 274 144 q 258 81 274 107 q 213 36 242 54 q 146 9 185 18 q 63 0 107 0 l 42 0 l 42 696 l 86 696 q 133 695 104 696 q 192 686 161 694 q 256 664 224 678 q 314 622 288 650 l 553 372 l 789 622 q 846 664 814 650 q 910 686 878 678 q 971 695 942 694 q 1018 696 1000 696 l 1061 696 l 1061 0 l 1039 0 z "},"Н":{"ha":1017,"x_min":42,"x_max":975,"o":"m 743 0 l 743 274 l 274 274 l 274 0 l 42 0 l 42 554 q 58 610 42 585 q 103 655 75 636 q 169 685 132 674 q 250 696 207 696 l 274 696 l 274 418 l 744 418 l 744 696 l 975 696 l 975 0 l 743 0 z "},"О":{"ha":1017,"x_min":42,"x_max":975,"o":"m 975 140 q 958 77 975 103 q 913 34 942 51 q 846 8 885 17 q 763 0 807 0 l 249 0 q 168 10 206 0 q 102 40 131 21 q 58 84 74 58 q 42 143 42 110 l 42 554 q 58 612 42 585 q 102 658 74 639 q 168 686 131 676 q 249 696 206 696 l 763 696 q 916 659 857 696 q 975 551 975 622 l 975 140 m 743 550 l 274 550 l 274 143 l 743 143 l 743 550 z "},"П":{"ha":1017,"x_min":42,"x_max":975,"o":"m 743 0 l 743 553 l 274 553 l 274 0 l 42 0 l 42 696 l 975 696 l 975 0 l 743 0 z "},"Р":{"ha":1017,"x_min":42,"x_max":975,"o":"m 975 421 q 904 310 975 347 q 714 274 833 274 l 367 274 q 374 323 367 296 q 398 371 382 350 q 440 406 414 392 q 503 421 467 421 l 742 421 l 742 550 l 274 550 l 274 163 q 214 29 274 65 q 144 6 183 11 q 65 0 106 0 l 42 0 l 42 696 l 763 696 q 916 658 857 696 q 975 550 975 621 l 975 421 z "},"С":{"ha":1019,"x_min":42,"x_max":978,"o":"m 978 550 q 955 490 978 511 q 911 458 932 469 q 843 428 881 439 q 764 418 806 418 l 743 418 l 743 550 l 274 550 l 274 143 l 744 143 l 744 285 l 975 285 l 975 147 q 958 82 975 110 q 913 36 942 54 q 846 9 885 18 q 764 0 807 0 l 249 0 q 169 10 207 0 q 103 40 132 21 q 58 85 75 58 q 42 144 42 111 l 42 554 q 58 610 42 585 q 103 655 75 636 q 169 685 132 674 q 250 696 207 696 l 764 696 q 919 658 861 696 q 978 550 978 621 z "},"Т":{"ha":1026,"x_min":42,"x_max":985,"o":"m 985 665 q 964 597 985 621 q 913 564 943 574 q 851 552 883 554 q 796 550 819 550 l 633 550 l 633 144 q 598 33 633 67 q 467 0 563 0 l 399 0 l 399 550 l 42 550 l 42 569 q 84 669 42 643 q 204 696 126 696 l 985 696 l 985 665 z "},"У":{"ha":1018,"x_min":42,"x_max":976,"o":"m 976 140 q 953 68 976 96 q 897 25 931 40 q 822 5 863 10 q 744 0 781 0 l 258 0 l 258 14 q 284 90 258 63 q 344 128 310 117 q 415 142 378 140 q 472 143 451 143 l 744 143 l 744 274 l 256 274 q 199 272 235 274 q 127 277 163 269 q 67 309 92 285 q 42 385 42 333 l 42 694 l 61 694 q 120 692 83 694 q 191 678 157 689 q 250 642 225 667 q 275 569 275 617 l 275 421 l 744 421 l 744 696 l 976 696 l 976 140 z "},"Ф":{"ha":1421,"x_min":42,"x_max":1379,"o":"m 42 550 q 101 658 42 621 q 254 696 160 696 l 1167 696 q 1320 658 1261 696 q 1379 550 1379 621 l 1379 314 q 1308 203 1379 240 q 1118 167 1238 167 l 826 167 l 826 163 q 767 29 826 65 q 697 6 736 11 q 618 0 658 0 l 594 0 l 594 167 l 303 167 q 113 203 183 167 q 42 314 42 240 l 42 550 m 826 314 l 1146 314 l 1146 550 l 826 550 l 826 314 m 275 314 l 594 314 l 594 550 l 275 550 l 275 314 z "},"Х":{"ha":967,"x_min":42,"x_max":925,"o":"m 668 0 l 486 210 l 365 67 q 302 19 336 33 q 247 3 268 6 q 224 0 226 0 l 42 0 l 346 356 l 50 696 l 232 696 q 256 692 236 696 q 310 674 275 689 q 375 625 346 658 l 488 496 l 607 628 q 671 674 636 658 q 726 692 706 689 q 749 696 746 696 l 925 696 l 626 350 l 925 0 l 668 0 z "},"Ц":{"ha":1103,"x_min":42,"x_max":1061,"o":"m 921 143 l 1061 143 l 1061 -133 l 965 -133 q 846 -85 900 -133 q 807 -31 821 -60 q 797 0 800 -17 l 251 0 q 170 10 208 0 q 103 40 132 21 q 58 85 75 58 q 42 144 42 111 l 42 696 l 67 696 q 216 669 158 696 q 274 576 274 643 l 274 143 l 689 143 l 689 696 l 921 696 l 921 143 z "},"Ш":{"ha":1218,"x_min":42,"x_max":1176,"o":"m 1176 143 q 1160 74 1176 100 q 1114 31 1143 47 q 1048 7 1085 14 q 968 0 1011 0 l 251 0 q 170 8 208 0 q 103 34 132 17 q 58 78 75 51 q 42 143 42 106 l 42 696 l 278 551 l 278 143 l 493 143 l 493 697 l 728 697 l 728 143 l 943 143 l 943 554 l 1176 696 l 1176 143 z "},"Щ":{"ha":1357,"x_min":42,"x_max":1315,"o":"m 251 0 q 170 8 208 0 q 103 34 132 17 q 58 78 75 51 q 42 143 42 106 l 42 696 l 68 696 q 148 690 111 696 q 214 669 185 685 q 260 625 243 654 q 278 551 278 596 l 278 143 l 493 143 l 493 697 l 728 697 l 728 143 l 943 143 l 943 554 q 960 626 943 599 q 1005 669 976 654 q 1072 690 1033 685 q 1153 696 1110 696 l 1176 696 l 1175 143 l 1315 143 l 1315 -133 l 1219 -133 q 1100 -85 1154 -133 q 1061 -31 1075 -60 q 1051 0 1054 -17 l 251 0 z "},"Ъ":{"ha":1161,"x_min":42,"x_max":1119,"o":"m 1119 146 q 1060 38 1119 75 q 907 0 1001 0 l 186 0 l 186 535 l 42 535 l 42 696 l 210 696 q 289 690 250 696 q 358 667 328 685 q 418 533 418 631 l 418 146 l 886 146 l 886 275 l 647 275 q 585 290 611 275 q 542 325 558 304 q 519 373 526 346 q 511 422 511 400 l 858 422 q 1049 385 978 422 q 1119 275 1119 349 l 1119 146 z "},"Ы":{"ha":1356,"x_min":42,"x_max":1314,"o":"m 975 275 l 975 146 q 916 38 975 75 q 763 0 857 0 l 42 0 l 42 696 l 65 696 q 144 690 106 696 q 214 667 183 685 q 274 533 274 631 l 274 146 l 742 146 l 742 275 l 503 275 q 440 290 467 275 q 398 325 414 304 q 374 373 382 346 q 367 422 367 400 l 714 422 q 904 385 833 422 q 975 275 975 349 m 1314 696 l 1314 0 l 1082 0 l 1082 551 q 1099 611 1082 585 q 1144 656 1115 638 q 1210 685 1172 675 q 1289 696 1247 696 l 1314 696 z "},"Ь":{"ha":1017,"x_min":42,"x_max":975,"o":"m 975 275 l 975 146 q 916 38 975 75 q 763 0 857 0 l 42 0 l 42 696 l 65 696 q 144 690 106 696 q 214 667 183 685 q 274 533 274 631 l 274 146 l 742 146 l 742 275 l 503 275 q 440 290 467 275 q 398 325 414 304 q 374 373 382 346 q 367 422 367 400 l 714 422 q 904 385 833 422 q 975 275 975 349 z "},"Э":{"ha":1017,"x_min":42,"x_max":975,"o":"m 300 421 l 743 421 l 743 550 l 42 550 q 99 658 42 621 q 253 696 157 696 l 768 696 q 847 685 810 696 q 913 655 885 674 q 958 610 942 636 q 975 551 975 583 l 975 144 q 958 85 975 111 q 913 40 942 58 q 847 10 885 21 q 767 0 810 0 l 253 0 q 170 8 208 0 q 103 34 132 17 q 58 78 74 51 q 42 143 42 106 l 743 143 l 743 274 l 300 274 l 300 421 z "},"Ю":{"ha":1356,"x_min":42,"x_max":1314,"o":"m 67 696 q 146 685 108 696 q 212 656 183 675 q 257 611 240 638 q 274 551 274 585 l 274 418 l 381 418 l 381 554 q 397 612 381 585 q 441 658 413 639 q 507 686 469 676 q 588 696 544 696 l 1101 696 q 1255 659 1196 696 q 1314 551 1314 622 l 1314 140 q 1297 77 1314 103 q 1252 34 1281 51 q 1185 8 1224 17 q 1101 0 1146 0 l 588 0 q 507 10 544 0 q 441 40 469 21 q 397 84 413 58 q 381 143 381 110 l 381 272 l 274 272 l 274 0 l 42 0 l 42 696 l 67 696 m 1082 550 l 613 550 l 613 143 l 1082 143 l 1082 550 z "},"Я":{"ha":1039,"x_min":42,"x_max":997,"o":"m 42 -1 l 264 272 q 116 314 168 276 q 64 418 64 351 l 64 550 q 121 658 64 621 q 275 696 178 696 l 997 696 l 997 3 l 974 3 q 894 8 933 3 q 825 32 856 14 q 765 165 765 67 l 765 550 l 294 550 l 294 421 l 656 421 l 324 -1 l 42 -1 z "},"а":{"ha":785,"x_min":42,"x_max":743,"o":"m 567 0 l 567 206 l 215 206 l 215 124 q 203 65 215 86 q 168 29 192 44 q 115 8 146 15 q 51 0 85 0 l 42 0 l 42 407 q 54 459 42 438 q 88 494 67 481 q 138 515 110 508 q 199 522 167 522 l 743 522 l 743 0 l 567 0 m 567 413 l 215 413 l 215 315 l 567 315 l 567 413 z "},"б":{"ha":783,"x_min":42,"x_max":742,"o":"m 742 100 q 700 29 742 58 q 567 0 658 0 l 196 0 q 137 8 165 0 q 88 30 108 15 q 54 63 67 44 q 42 107 42 82 l 42 414 q 58 467 42 446 q 99 500 74 488 q 155 517 124 513 q 215 522 186 522 l 742 522 l 742 513 q 726 467 742 486 q 686 436 711 449 q 630 418 661 424 q 567 413 599 413 l 215 413 l 215 315 l 586 315 q 644 310 617 315 q 696 292 672 306 q 742 224 742 265 l 742 100 m 567 206 l 215 206 l 215 107 l 567 107 l 567 206 z "},"в":{"ha":783,"x_min":42,"x_max":742,"o":"m 742 132 q 727 68 742 94 q 688 27 713 42 q 633 6 664 13 q 567 0 601 0 l 42 0 l 42 522 l 568 522 q 697 496 651 522 q 742 429 742 469 l 742 415 q 728 372 742 394 q 692 336 715 349 q 611 314 660 319 l 611 313 q 654 302 633 308 q 692 283 675 296 q 728 251 715 271 q 742 207 742 231 l 742 132 m 215 206 l 215 107 l 568 107 l 568 206 l 215 206 m 568 413 l 215 413 l 215 315 l 568 315 l 568 413 z "},"г":{"ha":722,"x_min":42,"x_max":681,"o":"m 681 522 q 674 476 681 500 q 644 439 667 453 q 591 419 621 425 q 507 413 561 413 l 215 413 l 215 122 q 171 22 215 49 q 118 4 147 8 q 58 0 89 0 l 42 0 l 42 413 q 58 476 42 454 q 97 509 74 499 q 148 521 121 519 q 199 522 175 522 l 681 522 z "},"д":{"ha":888,"x_min":42,"x_max":846,"o":"m 42 -78 l 42 124 l 118 124 l 118 404 q 130 458 118 436 q 165 494 142 479 q 217 515 188 508 q 279 522 246 522 l 771 522 l 771 124 l 846 124 l 846 -78 l 704 -78 l 704 -17 l 185 -17 l 185 -78 l 42 -78 m 297 124 l 588 124 l 588 410 l 297 410 l 297 124 z "},"е":{"ha":783,"x_min":42,"x_max":742,"o":"m 547 206 l 215 206 l 215 107 l 742 107 q 729 59 742 79 q 695 26 717 39 q 645 6 674 13 q 583 0 617 0 l 197 0 q 137 8 165 0 q 88 30 108 15 q 54 64 67 44 q 42 108 42 83 l 42 414 q 54 458 42 438 q 88 492 67 478 q 137 514 108 506 q 196 522 165 522 l 583 522 q 698 494 654 522 q 742 413 742 465 l 215 413 l 215 315 l 547 315 l 547 206 z "},"ж":{"ha":1254,"x_min":42,"x_max":1213,"o":"m 1079 0 q 1026 6 1047 0 q 988 18 1004 11 q 960 35 972 25 q 935 53 947 44 l 714 240 l 714 0 l 540 0 l 540 240 l 319 53 q 294 35 307 44 q 266 18 282 25 q 228 6 250 11 q 175 0 207 0 l 42 0 l 358 278 l 121 522 l 313 522 l 540 292 l 540 522 l 714 522 l 714 292 l 942 522 l 1133 522 l 896 278 l 1213 0 l 1079 0 z "},"з":{"ha":783,"x_min":42,"x_max":742,"o":"m 742 106 q 727 53 742 74 q 687 22 713 33 q 630 6 661 11 q 567 0 599 0 l 192 0 q 81 29 119 0 q 42 92 42 58 l 42 107 l 567 107 l 567 204 l 265 204 q 190 216 217 204 q 148 243 163 228 q 131 274 133 258 q 128 300 128 290 l 128 315 l 567 315 l 567 413 l 167 413 q 71 439 97 413 q 42 504 44 465 l 42 521 l 742 521 l 742 424 q 736 392 742 411 q 717 356 731 374 q 678 326 704 339 q 614 314 653 314 l 614 308 q 658 301 638 306 q 693 288 678 297 q 728 256 714 274 q 742 197 742 238 l 742 106 z "},"и":{"ha":713,"x_min":42,"x_max":671,"o":"m 42 3 l 42 522 l 54 522 q 171 497 126 522 q 215 417 215 472 l 215 229 q 246 256 229 240 q 273 281 263 272 q 283 292 283 290 l 469 467 q 513 497 489 486 q 558 513 536 507 q 601 521 581 519 q 636 522 622 522 l 671 522 l 671 3 l 497 3 l 497 297 l 428 232 l 242 57 q 198 28 221 39 q 152 11 175 17 q 110 4 129 6 q 76 3 90 3 l 42 3 z "},"й":{"ha":713,"x_min":42,"x_max":671,"o":"m 42 3 l 42 522 l 54 522 q 171 497 126 522 q 215 417 215 472 l 215 229 q 246 256 229 240 q 273 281 263 272 q 283 292 283 290 l 469 467 q 513 497 489 486 q 558 513 536 507 q 601 521 581 519 q 636 522 622 522 l 671 522 l 671 3 l 497 3 l 497 297 l 428 232 l 242 57 q 198 28 221 39 q 152 11 175 17 q 110 4 129 6 q 76 3 90 3 l 42 3 m 490 719 l 490 626 l 353 544 l 217 626 l 217 719 l 353 647 l 490 719 z "},"к":{"ha":756,"x_min":42,"x_max":714,"o":"m 581 0 q 527 6 549 0 q 490 18 506 11 q 461 35 474 25 q 436 53 449 44 l 215 240 l 215 100 q 202 53 215 72 q 167 22 189 33 q 117 6 146 11 q 57 0 88 0 l 42 0 l 42 522 l 215 522 l 215 292 l 442 522 l 635 522 l 397 278 l 714 0 l 581 0 z "},"л":{"ha":785,"x_min":42,"x_max":743,"o":"m 567 413 l 215 413 l 215 0 l 42 0 l 42 407 q 54 459 42 438 q 88 494 67 481 q 138 515 110 508 q 199 522 167 522 l 743 522 l 743 0 l 567 0 l 567 413 z "},"м":{"ha":847,"x_min":42,"x_max":806,"o":"m 789 0 q 728 7 757 0 q 678 27 699 14 q 644 60 657 40 q 632 108 632 81 l 632 321 l 425 88 l 215 321 l 215 108 q 203 60 215 81 q 170 27 192 40 q 119 7 149 14 q 57 0 90 0 l 42 0 l 42 522 l 75 522 q 109 522 88 522 q 154 515 131 521 q 201 498 178 508 q 246 467 225 488 l 425 279 l 601 467 q 644 498 621 488 q 692 515 668 508 q 738 522 717 521 q 774 522 760 522 l 806 522 l 806 0 l 789 0 z "},"н":{"ha":783,"x_min":42,"x_max":742,"o":"m 567 0 l 567 206 l 215 206 l 215 0 l 42 0 l 42 415 q 54 458 42 439 q 88 492 67 478 q 137 514 108 506 q 197 522 165 522 l 215 522 l 215 314 l 568 314 l 568 522 l 742 522 l 742 0 l 567 0 z "},"о":{"ha":783,"x_min":42,"x_max":742,"o":"m 742 106 q 729 58 742 78 q 695 26 717 39 q 644 6 674 13 q 582 0 615 0 l 196 0 q 136 8 164 0 q 87 30 108 15 q 53 63 65 44 q 42 107 42 82 l 42 415 q 53 459 42 439 q 87 493 65 479 q 136 515 108 507 q 196 522 164 522 l 582 522 q 697 494 653 522 q 742 414 742 467 l 742 106 m 567 413 l 215 413 l 215 107 l 567 107 l 567 413 z "},"п":{"ha":785,"x_min":42,"x_max":743,"o":"m 567 0 l 567 411 l 215 411 l 215 0 l 42 0 l 42 522 l 743 522 l 742 0 l 567 0 z "},"р":{"ha":783,"x_min":42,"x_max":742,"o":"m 742 315 q 688 233 742 261 q 546 206 635 206 l 285 206 q 290 242 285 222 q 308 278 296 263 q 340 305 321 294 q 388 315 360 315 l 567 315 l 567 413 l 215 413 l 215 122 q 171 22 215 49 q 118 4 147 8 q 58 0 89 0 l 42 0 l 42 522 l 582 522 q 697 494 653 522 q 742 413 742 465 l 742 315 z "},"с":{"ha":785,"x_min":42,"x_max":743,"o":"m 743 413 q 726 368 743 383 q 693 344 708 353 q 642 322 671 329 q 583 314 614 314 l 567 314 l 567 413 l 215 413 l 215 107 l 568 107 l 568 214 l 742 214 l 742 111 q 729 61 742 82 q 695 27 717 40 q 644 7 674 14 q 583 0 615 0 l 196 0 q 137 8 165 0 q 88 30 108 15 q 54 64 67 44 q 42 108 42 83 l 42 415 q 54 458 42 439 q 88 492 67 478 q 137 514 108 506 q 197 522 165 522 l 583 522 q 699 494 656 522 q 743 413 743 465 z "},"т":{"ha":792,"x_min":42,"x_max":750,"o":"m 750 499 q 734 448 750 465 q 696 423 718 431 q 649 414 674 415 q 608 413 625 413 l 486 413 l 486 108 q 460 25 486 50 q 361 0 433 0 l 310 0 l 310 413 l 42 413 l 42 428 q 74 502 42 482 q 164 522 106 522 l 750 522 l 750 499 z "},"у":{"ha":783,"x_min":42,"x_max":742,"o":"m 742 106 q 725 51 742 72 q 683 19 708 31 q 626 3 657 7 q 568 0 596 0 l 204 0 l 204 11 q 223 67 204 47 q 267 97 242 88 q 321 106 293 106 q 364 107 349 107 l 568 107 l 568 206 l 201 206 q 159 204 186 206 q 106 208 132 203 q 60 232 79 214 q 42 289 42 250 l 42 521 l 56 521 q 100 519 72 521 q 153 508 128 517 q 198 481 179 500 q 217 428 217 463 l 217 315 l 568 315 l 568 522 l 742 522 l 742 106 z "},"ф":{"ha":1086,"x_min":42,"x_max":1044,"o":"m 42 413 q 85 494 42 465 q 200 522 129 522 l 885 522 q 1000 494 956 522 q 1044 413 1044 465 l 1044 236 q 991 153 1044 181 q 849 125 938 125 l 629 125 l 629 122 q 585 22 629 49 q 533 4 563 8 q 474 0 504 0 l 456 0 l 456 125 l 238 125 q 94 153 147 125 q 42 236 42 181 l 42 413 m 629 236 l 869 236 l 869 413 l 629 413 l 629 236 m 217 236 l 456 236 l 456 413 l 217 413 l 217 236 z "},"х":{"ha":746,"x_min":42,"x_max":704,"o":"m 511 0 l 375 157 l 283 50 q 237 15 263 25 q 195 2 211 4 q 178 0 179 0 l 42 0 l 269 267 l 47 522 l 183 522 q 202 519 188 522 q 243 506 217 517 q 292 469 269 494 l 375 372 l 465 471 q 513 506 488 494 q 554 519 539 517 q 571 522 569 522 l 704 522 l 479 263 l 704 0 l 511 0 z "},"ц":{"ha":847,"x_min":42,"x_max":806,"o":"m 700 107 l 806 107 l 806 -100 l 733 -100 q 644 -64 685 -100 q 615 -24 625 -44 q 608 0 610 -12 l 199 0 q 138 8 167 0 q 88 30 108 15 q 54 64 67 44 q 42 108 42 83 l 42 522 l 60 522 q 172 502 129 522 q 215 432 215 482 l 215 107 l 526 107 l 526 522 l 700 522 l 700 107 z "},"ч":{"ha":783,"x_min":42,"x_max":742,"o":"m 567 522 l 742 522 l 742 0 l 567 0 l 567 149 l 238 149 q 94 176 147 149 q 42 260 42 204 l 42 522 l 217 522 l 217 260 l 567 260 l 567 522 z "},"ш":{"ha":933,"x_min":42,"x_max":892,"o":"m 892 107 q 879 56 892 75 q 845 24 867 36 q 796 6 824 11 q 736 0 768 0 l 199 0 q 138 6 167 0 q 88 26 108 13 q 54 59 67 39 q 42 107 42 79 l 42 522 l 218 414 l 218 107 l 379 107 l 379 524 l 556 524 l 556 107 l 717 107 l 717 415 l 892 522 l 892 107 z "},"щ":{"ha":1038,"x_min":42,"x_max":996,"o":"m 199 0 q 138 6 167 0 q 88 26 108 13 q 54 59 67 39 q 42 107 42 79 l 42 522 l 61 522 q 121 518 93 522 q 170 502 149 514 q 205 469 192 490 q 218 414 218 447 l 218 107 l 379 107 l 379 524 l 556 524 l 556 107 l 717 107 l 717 415 q 729 469 717 449 q 763 502 742 490 q 813 518 785 514 q 875 522 842 522 l 892 522 l 892 107 l 996 107 l 996 -100 l 925 -100 q 835 -64 875 -100 q 806 -24 817 -44 q 799 0 800 -12 l 199 0 z "},"ъ":{"ha":892,"x_min":42,"x_max":850,"o":"m 850 110 q 806 28 850 57 q 690 0 761 0 l 150 0 l 150 401 l 42 401 l 42 522 l 167 522 q 226 518 197 522 q 279 500 256 514 q 324 400 324 474 l 324 110 l 675 110 l 675 207 l 496 207 q 449 217 468 207 q 417 244 429 228 q 399 280 404 260 q 393 317 393 300 l 654 317 q 797 289 743 317 q 850 207 850 261 l 850 110 z "},"ы":{"ha":1038,"x_min":42,"x_max":996,"o":"m 742 207 l 742 110 q 697 28 742 57 q 582 0 653 0 l 42 0 l 42 522 l 58 522 q 118 518 89 522 q 171 500 147 514 q 215 400 215 474 l 215 110 l 567 110 l 567 207 l 388 207 q 340 217 360 207 q 308 244 321 228 q 290 280 296 260 q 285 317 285 300 l 546 317 q 688 289 635 317 q 742 207 742 261 m 996 522 l 996 0 l 821 0 l 821 414 q 833 458 821 439 q 867 492 846 478 q 917 515 889 507 q 976 522 946 522 l 996 522 z "},"ь":{"ha":783,"x_min":42,"x_max":742,"o":"m 742 207 l 742 110 q 697 28 742 57 q 582 0 653 0 l 42 0 l 42 522 l 58 522 q 118 518 89 522 q 171 500 147 514 q 215 400 215 474 l 215 110 l 567 110 l 567 207 l 388 207 q 340 217 360 207 q 308 244 321 228 q 290 280 296 260 q 285 317 285 300 l 546 317 q 688 289 635 317 q 742 207 742 261 z "},"э":{"ha":783,"x_min":42,"x_max":742,"o":"m 235 315 l 567 315 l 567 413 l 42 413 q 85 494 42 465 q 200 522 128 522 l 586 522 q 645 514 617 522 q 695 492 674 506 q 729 458 717 478 q 742 414 742 438 l 742 108 q 729 64 742 83 q 695 30 717 44 q 645 8 674 15 q 585 0 617 0 l 200 0 q 138 6 167 0 q 87 26 108 13 q 53 59 65 39 q 42 107 42 79 l 567 107 l 567 206 l 235 206 l 235 315 z "},"ю":{"ha":1038,"x_min":42,"x_max":996,"o":"m 60 522 q 119 515 92 522 q 169 492 147 507 q 203 458 190 478 q 215 414 215 439 l 215 314 l 296 314 l 296 415 q 308 459 296 439 q 341 493 319 479 q 390 515 363 507 q 450 522 418 522 l 836 522 q 951 494 907 522 q 996 414 996 467 l 996 106 q 983 58 996 78 q 949 26 971 39 q 899 6 928 13 q 836 0 869 0 l 450 0 q 390 8 418 0 q 341 30 363 15 q 308 63 319 44 q 296 107 296 82 l 296 204 l 215 204 l 215 0 l 42 0 l 42 522 l 60 522 m 821 413 l 469 413 l 469 107 l 821 107 l 821 413 z "},"я":{"ha":800,"x_min":42,"x_max":758,"o":"m 42 -1 l 208 204 q 97 235 136 207 q 58 314 58 264 l 58 413 q 101 494 58 465 q 217 522 143 522 l 758 522 l 758 3 l 740 3 q 681 7 710 3 q 629 24 651 11 q 583 124 583 50 l 583 413 l 231 413 l 231 315 l 501 315 l 253 -1 l 42 -1 z "},"Ч":{"ha":1017,"x_min":42,"x_max":975,"o":"m 743 696 l 975 696 l 975 0 l 743 0 l 743 199 l 303 199 q 113 235 183 199 q 42 346 42 272 l 42 696 l 275 696 l 275 346 l 743 346 l 743 696 z "},"\\":{"ha":657,"x_min":69,"x_max":588,"o":"m 69 958 l 215 958 l 588 -272 l 442 -272 l 69 958 z "},"(":{"ha":358,"x_min":42,"x_max":317,"o":"m 317 -261 l 253 -261 q 197 -257 232 -261 q 126 -240 161 -253 q 67 -202 92 -226 q 42 -139 42 -178 l 42 814 q 57 888 42 858 q 99 934 72 917 q 160 959 126 951 q 233 967 194 967 l 317 967 l 317 825 l 222 825 l 222 -131 l 317 -131 l 317 -261 z "},")":{"ha":358,"x_min":42,"x_max":317,"o":"m 317 -139 q 292 -202 317 -178 q 232 -240 267 -226 q 163 -257 197 -253 q 106 -261 128 -261 l 42 -261 l 42 -131 l 136 -131 l 136 825 l 42 825 l 42 967 l 126 967 q 199 959 164 967 q 259 934 233 951 q 301 888 285 917 q 317 814 317 858 l 317 -139 z "},"¡":{"ha":318,"x_min":69,"x_max":249,"o":"m 69 631 l 69 742 l 249 742 l 249 631 l 69 631 m 217 0 q 109 35 144 0 q 74 124 74 69 l 74 522 l 93 522 q 212 490 175 522 q 249 397 249 457 l 249 0 l 217 0 z "},"¯":{"ha":694,"x_min":0,"x_max":0,"o":""}," ":{"ha":317,"x_min":0,"x_max":0,"o":""}}}
